<?xml version="1.0" encoding="UTF-8"?>
<svg xmlns="http://www.w3.org/2000/svg"
    version="1.1"
    viewBox="0 0 100 100"
    height="100"
    width="100" >
    <path
        d="M 2.6441669e-6,5.7070586e-4 H 100 V 99.999434 H 2.6441669e-6 Z"
        style="fill-opacity:0" />
    <path
        d="M 37.751167,98.175073 C 28.637516,93.388885 24.57082,89.993131 21.945636,84.977188 20.201573,81.644741 19.675463,79.242236 19.682568,74.64283 c 0.0038,-3.041351 0.155339,-4.602505 0.697399,-7.221008 1.213228,-5.862736 2.436775,-8.51926 8.035313,-17.446176 5.028548,-8.018063 7.108006,-13.37896 7.141644,-18.411495 0.0076,-1.306492 -0.121701,-2.984394 -0.290268,-3.728688 -0.168189,-0.744332 -0.254362,-1.404872 -0.191622,-1.467876 0.232063,-0.231683 1.872341,2.125998 2.667175,3.833569 1.376693,2.957673 1.736806,4.736639 1.876914,9.272172 0.08995,2.916779 -0.0076,5.232734 -0.315213,7.633651 -0.244536,1.895639 -0.444435,3.559065 -0.444435,3.696525 0,0.390194 1.358589,-1.521016 2.080177,-2.926341 1.068132,-2.080077 1.535962,-4.419125 1.544957,-7.724133 0.0076,-3.289588 0.0011,-3.351231 -1.077808,-8.885606 -0.612586,-3.141319 -0.729713,-4.497625 -0.730016,-8.453347 -3.02e-4,-4.470072 0.03817,-4.808638 0.748914,-6.601739 1.381606,-3.484873 2.871798,-5.038317 7.354885,-7.6671377 1.631811,-0.9568521 3.630765,-2.1289081 4.442116,-2.6045184 1.911118,-1.1203149 4.254614,-3.4534285 4.894791,-4.8730785 0.638891,-1.41681539 0.974815,-1.42376964 0.974815,-0.018897 0,1.6653165 -0.677253,3.3351306 -2.778708,6.8508827 -2.249651,3.7637619 -2.808605,5.4270749 -2.979591,8.8664059 -0.193511,3.888939 0.761689,8.106352 2.87607,12.701185 l 0.765241,1.662935 0.188598,-1.388545 c 0.408491,-3.007109 2.454236,-5.725994 6.746154,-8.966033 4.745273,-3.582309 6.821556,-6.527661 6.82405,-9.680545 l 0.0011,-1.3061141 0.511144,0.8381381 c 0.891628,1.462094 1.216025,2.90495 1.205933,5.363504 -0.01134,2.681431 -0.400667,4.148287 -2.568075,9.668149 -2.142879,5.457462 -2.807093,8.547796 -2.96315,13.786237 -0.141354,4.739662 0.217323,7.660221 1.360668,11.086362 0.758891,2.274002 0.938268,2.347249 1.014614,0.414307 0.0771,-1.95388 0.816038,-4.490973 1.793726,-6.159313 0.654463,-1.116686 3.714558,-4.274408 3.930028,-4.055387 0.05405,0.0548 -0.203716,0.998465 -0.572485,2.096783 -1.604787,4.778364 -1.102223,8.246079 2.109695,14.557592 2.31137,4.541958 3.175786,7.002553 3.609071,10.273546 0.553663,4.179808 -0.449915,9.936605 -2.425663,13.914286 -2.473021,4.978866 -7.323477,9.885053 -12.550828,12.694949 -2.054589,1.104403 -6.910678,3.075291 -7.103169,2.882802 -0.0703,-0.0703 0.469984,-0.474364 1.200945,-0.897552 4.837115,-2.800636 9.102047,-7.966814 10.632,-12.87867 1.967584,-6.316955 1.056869,-12.665884 -2.577184,-17.966536 -0.451881,-0.659142 -2.717216,-3.166112 -5.034066,-5.570998 -4.536265,-4.708671 -5.80407,-6.594104 -6.656996,-9.900133 -0.541115,-2.097349 -0.552907,-3.236297 -0.05065,-4.904826 0.213543,-0.710165 0.286488,-1.291261 0.161764,-1.291261 -0.124725,0 -0.613682,0.488574 -1.086577,1.085657 -2.17508,2.746211 -3.059452,6.719054 -2.37256,10.657957 0.542891,3.1132 1.403943,5.418194 3.92005,10.493702 3.251716,6.559371 4.264365,9.404983 4.668661,13.119271 0.596145,5.476435 -2.750475,11.01682 -7.410141,12.26764 -1.032832,0.277414 -1.655433,0.0076 -0.970583,-0.420845 0.771893,-0.482565 2.100624,-2.530743 2.823118,-4.351737 1.905751,-4.803158 0.875414,-10.006828 -2.722167,-13.748177 -1.264781,-1.315261 -2.389266,-2.164247 -2.389266,-1.803835 0,0.08655 0.328441,0.805408 0.729524,1.59721 2.351396,4.640187 2.5872,8.730723 0.704731,12.225348 -0.966349,1.793857 -2.221871,2.722967 -3.871105,2.864698 -1.667981,0.143242 -2.929096,-0.491257 -4.131137,-2.078792 -2.478388,-3.273147 -2.349052,-7.832755 0.450519,-15.886232 1.479685,-4.256494 1.984252,-6.530647 2.017512,-9.092835 0.02646,-1.996778 -0.60034,-4.800097 -1.147993,-5.13855 -0.119056,-0.0737 -0.359434,0.729592 -0.533594,1.784975 -0.522709,3.165092 -1.838929,6.283015 -4.621077,10.946484 -3.583748,6.007112 -4.107213,7.631535 -4.110539,12.755987 -0.0017,3.162975 0.113764,4.31568 0.626608,6.236074 0.831458,3.113501 2.127912,6.429546 3.873827,9.90841 0.784176,1.562515 1.331074,2.839033 1.215345,2.83673 -0.115654,-0.0023 -1.769424,-0.822945 -3.674911,-1.823639 z"
        style="fill:#ef5350" />
</svg>
