<?xml version="1.0" encoding="UTF-8"?>
<svg xmlns="http://www.w3.org/2000/svg"
   viewBox="0 0 100 100"
   height="100"
   width="100">
    <path
        d="m 0.73176049,98.704368 c -1.17967,-5.7355 -0.57869,-20.04759 -0.57869,-26.25886 0,-24.17124 0.0227,-24.75914 0.96990001,-25.84175 1.83425,-2.09499 3.05016,-2.22527 19.6620895,-2.10637 l 16.12687,0.11528 1.35617,-1.84475 c 1.49204,-2.02968 7.93825,-13.622056 10.30718,-18.535667 1.49855,-3.108244 1.5015,-3.130619 1.5015,-11.322817 0.20145,-4.5246594 -0.66743,-6.5636764 1.57398,-10.0061814 2.7188,-3.10537202 7.86289,-3.82193202 11.85993,-1.652031 2.01476,1.093757 3.59513,4.333642 5.84164,11.9758064 1.76893,6.017421 1.90628,9.164859 0.73746,16.895237 -0.54693,3.617343 -0.99443,6.733183 -0.99443,6.923973 0,0.19087 5.60232,0.34697 12.44969,0.34697 11.59899,0 12.5879,0.0763 14.47306,1.11873 3.76252,2.08037 5.11959,8.34161 2.93556,13.5439 -0.81597,1.94351 -0.99859,3.2465 -0.89216,6.36525 0.11527,3.37591 -0.0378,4.27083 -1.09504,6.43271 -1.07093,2.18854 -1.17188,2.80162 -0.78546,4.77094 0.55305,2.81888 -0.51958,8.34795 -1.79403,9.24763 -0.24303,0.17159 -0.33449,2.02896 -0.20296,4.12747 0.4162,6.64372 -1.8463,10.80929 -6.91559,12.73239 -2.08377,0.79052 -5.01215,0.87666 -25.12407,0.7389 -22.6365,-0.15496 -22.77566,-0.1629 -24.57559,-1.37775 -2.34807,-1.58499 -2.70671,-1.54152 -2.70671,0.32806 0,0.89246 -0.49459,2.15939 -1.16594,2.98684 -4.25046,2.287712 -12.15735,1.43694 -16.18742,1.43694 -3.29159,-0.15042 -12.1161395,0.161392 -16.77682951,-1.14089 z M 86.21205,90.326678 c 2.27739,-1.50709 3.62105,-4.65464 2.87051,-6.72424 -0.30576,-0.84309 -1.07667,-1.85124 -1.71322,-2.24031 -1.62841,-0.99538 -1.42231,-1.71651 0.84809,-2.96765 3.78183,-2.08403 4.5487,-6.99499 1.44162,-9.23205 -1.99381,-1.43551 -1.9254,-2.10837 0.31673,-3.11426 3.60839,-1.61896 4.57126,-7.2441 1.60373,-9.36891 -1.82438,-1.30628 -1.98002,-2.31088 -0.42705,-2.75607 2.69934,-0.77382 4.66847,-5.15063 3.89692,-8.66173 -0.59286,-2.69798 -2.31319,-3.01625 -16.10654,-2.97993 -16.33167,0.0431 -15.64274,0.0616 -15.38328,-0.41783 0.47456,-0.87696 2.80929,-17.893443 2.77637,-20.235313 -0.0302,-2.155842 -2.16514,-9.915964 -3.91291,-14.2233774 -0.82972,-2.044874 -3.07563,-2.833283 -5.496,-1.929296 l -1.85771,0.693883 -0.24227,8.4163614 c 0.16252,5.602618 0.13266,7.675197 -2.16684,12.217771 -5.77901,11.415381 -12.45699,21.527271 -12.969,21.993971 -3.06244,2.25003 -2.52884,17.09585 -2.55825,21.39805 l -0.13115,18.13968 1.59164,1.24524 c 0.87537,0.68489 2.48009,1.40088 3.56594,1.59111 1.0859,0.19011 11.0676,0.32579 22.1816,0.30085 19.39737,-0.0431 20.27388,-0.0892 21.87133,-1.14611 z"
        style="fill:#80b3ff" />
</svg>
