<?xml version="1.0" encoding="UTF-8"?>
<svg
   xmlns="http://www.w3.org/2000/svg"
   width="100"
   height="100"
   viewBox="0 0 100 100">
  <path
    d="m 100,15.00002 v -10 Q 100,2.96876 98.76302,1.48439 97.52604,0 95.833316,0 H 4.1666578 Q 2.4739597,0 1.2369799,1.48439 0,2.96876 0,5.00002 v 10 q 0,2.03123 1.2369799,3.51563 1.2369798,1.48436 2.9296779,1.48436 H 95.833316 q 1.692724,0 2.929704,-1.48436 Q 100,17.03125 100,15.00002 Z m 0,40 V 45.00001 q 0,-2.03126 -1.23698,-3.51562 -1.23698,-1.48437 -2.929704,-1.48437 H 4.1666578 q -1.6926981,0 -2.9296779,1.48437 Q 0,42.96875 0,45.00001 v 10.00001 q 0,2.03123 1.2369799,3.51562 1.2369798,1.48437 2.9296779,1.48437 H 95.833316 q 1.692724,0 2.929704,-1.48437 Q 100,57.03125 100,55.00002 Z m 0,39.99999 v -10 q 0,-2.03126 -1.23698,-3.51563 -1.23698,-1.48436 -2.929704,-1.48436 H 4.1666578 q -1.6926981,0 -2.9296779,1.48436 Q 0,82.96875 0,85.00001 v 10 Q 0,97.03124 1.2369799,98.51563 2.4739597,100 4.1666578,100 H 95.833316 q 1.845997,0 2.929704,-1.48437 Q 100,97.03124 100,95.00001 Z"
    fill="#FFFFFF"/>
</svg>
