<?xml version="1.0" encoding="UTF-8"?>
<svg
   xmlns="http://www.w3.org/2000/svg"
   width="100mm"
   height="37.485363mm"
   viewBox="0 0 100 37.485363">
  <g
    transform="translate(345.21457,-73.29392)">
    <path
      d="m -328.36945,93.703819 h -2.15779 V 85.75924 h -8.09715 v 7.944579 h -2.15779 V 77.476825 h 2.15779 v 6.364382 h 8.09715 v -6.364382 h 2.15779 z"
      style="stroke-width:0.41847989;fill:#ffffff"
      id="text1" />
    <path
      d="m -312.20785,89.072206 q 0,0.948118 -0.44681,1.874441 -0.43592,0.926323 -1.23147,1.5693 -0.87183,0.697466 -2.03791,1.089791 -1.15518,0.392325 -2.78986,0.392325 -1.75457,0 -3.1604,-0.326937 -1.39493,-0.326938 -2.84435,-0.969915 v -2.702682 h 0.15257 q 1.23146,1.024403 2.84435,1.580197 1.61289,0.555794 3.02962,0.555794 2.00522,0 3.11681,-0.751956 1.12248,-0.751956 1.12248,-2.005217 0,-1.078893 -0.534,-1.591095 -0.5231,-0.512202 -1.60199,-0.795548 -0.81734,-0.217958 -1.77636,-0.359631 -0.94812,-0.141673 -2.01611,-0.359631 -2.15779,-0.457712 -3.20399,-1.558402 -1.0353,-1.111587 -1.0353,-2.887947 0,-2.03791 1.72187,-3.334762 1.72187,-1.307749 4.37006,-1.307749 1.71097,0 3.1386,0.326937 1.42763,0.326938 2.52832,0.806446 v 2.550112 h -0.15257 q -0.92633,-0.78465 -2.44114,-1.296852 -1.50391,-0.5231 -3.08411,-0.5231 -1.73276,0 -2.78986,0.719262 -1.0462,0.719263 -1.0462,1.852646 0,1.013506 0.5231,1.591095 0.5231,0.57759 1.84175,0.882731 0.69746,0.152571 1.98342,0.370529 1.28595,0.217959 2.17958,0.446815 1.80905,0.479508 2.72448,1.449422 0.91542,0.969915 0.91542,2.713581 z"
      style="stroke-width:0.41847989;fill:#ffffff"
      id="text2" />
    <path
      d="m -296.36228,93.703819 h -2.66999 l -7.69393,-14.516021 v 14.516021 h -2.01611 V 77.476825 h 3.34566 l 7.01825,13.251864 V 77.476825 h 2.01612 z"
      style="stroke-width:0.41847989;fill:#ffffff"
      id="text3" />
    <path
      d="m -279.83015,87.186867 q 0,1.765462 -0.39232,3.084109 -0.38143,1.30775 -1.26416,2.179583 -0.83914,0.828242 -1.96162,1.209669 -1.12249,0.381427 -2.6155,0.381427 -1.52571,0 -2.6591,-0.403223 -1.13338,-0.403223 -1.90713,-1.187873 -0.88273,-0.893629 -1.27506,-2.157787 -0.38142,-1.264158 -0.38142,-3.105905 v -9.710042 h 2.15778 v 9.819021 q 0,1.318647 0.17437,2.081501 0.18527,0.762854 0.61028,1.384036 0.47951,0.708364 1.29686,1.067995 0.82824,0.359631 1.98342,0.359631 1.16607,0 1.98342,-0.348733 0.81734,-0.359631 1.30775,-1.078893 0.42501,-0.621182 0.59938,-1.416729 0.18527,-0.806446 0.18527,-1.994319 v -9.87351 h 2.15778 z"
      style="stroke-width:0.41847989;fill:#ffffff"
      id="text4" />
    <path
      style="fill:#ffffff;stroke:none;stroke-width:0.40537497"
      d="m -345.21457,73.29392 v 0.202779 37.282581 h 100 V 73.29392 Z m 1.32602,0.40535 h 98.26863 v 36.58563 z m -0.92068,0.08903 98.2657,36.58563 h -98.2657 z"
      id="rect" />
    <path
        d="m -306.76668,97.402522 q 0.42639,-0.170557 0.42639,0.255835 -0.17056,0.341114 -0.34111,0.596949 h 1.9614 q 0.93806,0 0.85279,0.852784 v 2.21724 q 0.0853,0.93806 -0.85279,0.85278 h -1.53501 v 0.59695 q 0.25584,0.93806 0.76751,1.70557 1.10861,-0.93806 1.62029,-1.79085 0.42639,-0.0853 0.42639,0.34112 -0.68223,0.93806 -1.70557,1.87612 0.68223,1.02334 1.79085,2.04668 0.0853,0.42639 -0.34112,0.42639 -1.53501,-1.36445 -2.55835,-3.24057 v 2.55835 q 0.17056,1.10862 -2.04668,0.59695 -0.17056,-0.4264 0.25583,-0.51167 1.44974,0.42639 1.27918,-0.0853 v -4.51976 h -1.70557 q -0.85278,0.0853 -0.85278,-0.85278 v -2.21724 q 0,-0.852784 0.85278,-0.852784 h 1.1939 q 0.25583,-0.341114 0.51167,-0.852784 z m 1.87612,1.364454 h -3.41113 q -0.51167,0 -0.51167,0.511671 v 0.682227 h 4.43447 v -0.682227 q 0.0853,-0.511671 -0.51167,-0.511671 z m 0.51167,1.705564 h -4.43447 v 0.68223 q 0,0.59695 0.51167,0.51167 h 3.41113 q 0.59695,0.0853 0.51167,-0.51167 z m -5.03142,2.55836 h 1.44973 q 0.68223,0 0.68223,0.68222 -0.76751,2.30252 -2.3878,3.66697 -0.42639,0.0853 -0.34111,-0.42639 1.44973,-1.19389 2.13196,-3.07002 0.17056,-0.34111 -0.17056,-0.34111 h -1.36445 q -0.34111,-0.25584 0,-0.51167 z m -2.21724,-5.5431 q 0.42639,-0.341113 0.51167,0.170557 -0.51167,1.108619 -1.36445,2.387793 l 1.36445,-0.08528 q 0.42639,-0.682227 0.85279,-1.449733 0.42639,-0.255835 0.42639,0.255835 -0.85279,1.705564 -2.55835,3.922804 l 1.87612,-0.17055 q -0.17056,-0.68223 -0.34111,-1.10862 0.17055,-0.51167 0.51167,-0.17056 0.34111,0.93806 0.59695,2.04668 -0.0853,0.51167 -0.51167,0.17056 l -0.0853,-0.42639 -2.55836,0.25583 q -0.51167,-0.0853 -0.0853,-0.68223 1.02334,-1.36445 1.53501,-2.13196 l -1.44974,0.0853 q -0.59694,0.0853 -0.25583,-0.51167 1.02334,-1.44973 1.53501,-2.55835 z m -1.1939,6.56644 q 0.34112,-0.34112 0.51167,0.0853 -0.17055,1.53501 -0.51167,2.89946 -0.34111,0.34111 -0.51167,-0.0853 0.34112,-1.44973 0.51167,-2.89946 z m 2.13196,-0.0853 q 0.17056,-0.51167 0.51167,-0.0853 0.25584,1.10862 0.34112,2.13196 -0.17056,0.51167 -0.51167,0.0853 -0.0853,-1.02334 -0.34112,-2.13196 z m -1.10862,0.0853 q 0.17056,-0.42639 0.51167,-0.0853 0.0853,1.02334 0.17056,2.64363 -0.25583,0.42639 -0.51167,0.0853 -0.0853,-1.10862 -0.17056,-2.64363 z"
        style="stroke-width:0.20466816;fill:#ffffff"
        id="text5" />
    <path
        d="m -297.64189,97.743636 v 3.581694 h 4.09336 q 0.34112,0.25583 0,0.51167 h -4.09336 v 4.86087 h 5.1167 q 0.34112,0.25583 0,0.51167 h -9.89229 q -0.34112,-0.25584 0,-0.51167 h 4.26392 v -8.954234 q 0.25583,-0.341114 0.51167,0 z"
        style="stroke-width:0.20466816;fill:#ffffff"
        id="text6" />
    <path
        d="m -289.88156,97.4878 q 0.76751,0.596949 1.44974,1.193898 0.17055,0.51167 -0.34112,0.341114 -0.85278,-0.596949 -1.53501,-1.193898 -0.0853,-0.51167 0.42639,-0.341114 z m 8.18673,0.682228 q 0.42639,0.255835 0,0.51167 h -1.87613 v 7.930892 q 0,1.10862 -2.7289,0.42639 -0.25584,-0.42639 0.17055,-0.51167 2.13196,0.59695 2.04668,-0.0853 v -7.760332 h -2.55835 q -0.42639,-0.255835 0,-0.51167 z m -9.55118,1.02334 h 4.43447 q 0.4264,0.255836 0,0.511671 h -4.43447 q -0.42639,-0.255835 0,-0.511671 z m 0.51167,1.364452 h 3.41113 q 0.4264,0.25584 0,0.51167 h -3.41113 q -0.42639,-0.25583 0,-0.51167 z m 0,1.36446 h 3.41113 q 0.4264,0.25583 0,0.51167 h -3.41113 q -0.42639,-0.25584 0,-0.51167 z m 0.7675,1.36445 h 1.70557 q 1.02334,0 0.93806,1.02334 v 2.13196 q 0.0853,0.85279 -0.93806,0.76751 h -1.70557 q -0.93806,0.0853 -0.93806,-0.85279 v -2.13196 q 0,-0.93806 0.93806,-0.93806 z m 1.53502,0.51167 h -1.44974 q -0.51167,0 -0.51167,0.51167 v 1.87613 q 0,0.59695 0.51167,0.51167 h 1.53501 q 0.59695,0.0853 0.51167,-0.34112 v -2.04668 q 0.0853,-0.51167 -0.59694,-0.51167 z"
        style="stroke-width:0.20466816;fill:#ffffff"
        id="text7" />
    <path
        d="m -275.72534,102.77506 q -0.17056,-0.34111 -0.51167,-0.7675 0.0853,-0.34112 0.42639,-0.25584 0.51167,0.59695 0.68223,1.02334 h 1.9614 q 1.10862,0 1.02334,0.85279 v 0.85278 q 0.0853,0.93806 -1.02334,0.85278 h -5.28726 v 1.27918 q 0,0.85278 2.04668,-0.34111 0.51167,0.17055 0.0853,0.51167 -1.10862,0.51167 -1.53501,0.68222 -1.02334,0.17056 -1.10862,-0.68222 v -3.1553 q 0,-0.85279 0.85278,-0.85279 z m -3.07002,-5.28726 q 0.25583,-0.341113 0.51167,0 v 0.511671 h 2.13196 q 0.42639,0.255835 0,0.51167 h -2.13196 v 0.682227 h 1.27917 q 0.85279,0 0.76751,0.596949 -0.93806,1.790843 -4.17864,2.387793 -0.4264,-0.17055 -0.0853,-0.51167 1.02334,-0.17055 1.79084,-0.51167 -0.25583,-0.42639 -0.59694,-0.7675 0,-0.511674 0.42639,-0.34112 0.34111,0.34112 0.68222,0.85279 0.68223,-0.34112 1.1939,-0.938066 0.25584,-0.255835 -0.17055,-0.255835 h -1.87613 q -0.68223,0.767501 -1.44973,1.279171 -0.59695,0.0853 -0.34112,-0.42639 0.76751,-0.42639 1.44974,-1.364452 0.34111,-0.426392 0.51167,0 h 0.0853 z m 5.62837,5.79893 h -4.77559 q -0.51167,0 -0.51167,0.42639 v 0.0853 h 5.79893 v -0.0853 q 0.0853,-0.42639 -0.51167,-0.42639 z m 0.51167,1.02334 h -5.79893 v 0.51167 h 5.28726 q 0.59695,0.0853 0.51167,-0.42639 z m 0.25584,-6.310599 q 1.02334,0 0.93806,0.682227 -0.34112,0.938062 -1.02334,1.449732 0.7675,0.51167 1.27917,0.93806 0.17056,0.51167 -0.34111,0.4264 -0.51167,-0.51168 -1.36445,-1.02335 -0.93807,0.59695 -1.53502,0.76751 -0.51167,-0.0853 -0.17055,-0.42639 0.68222,-0.25584 1.27917,-0.59695 -0.68222,-0.426393 -1.70556,-0.938063 -0.34112,-0.341114 0.17055,-0.426392 1.27918,0.596949 1.96141,1.023341 0.68222,-0.596949 0.85278,-1.10862 0.0853,-0.255835 -0.42639,-0.255835 h -2.89947 q -0.42639,-0.255835 0,-0.51167 z m -3.5817,2.814189 q 0.34112,-0.25584 0.68223,0 1.44973,1.1939 4.60503,1.79084 0.34112,0.34112 -0.17055,0.51167 -2.98475,-0.59694 -4.77559,-1.87612 -2.13196,1.44973 -4.69032,1.87612 -0.51167,-0.17055 -0.0853,-0.51167 2.64363,-0.42639 4.43447,-1.79084 z m 0.0853,4.69031 q 1.02334,0.25584 2.04668,0.59695 0.93807,-0.34111 1.62029,-0.85279 0.51167,0 0.34112,0.4264 -0.68223,0.42639 -1.27918,0.68222 1.10862,0.25584 2.30252,0.68223 0.25583,0.42639 -0.17056,0.51167 -2.64363,-0.85278 -5.03143,-1.53501 -0.25583,-0.34111 0.17056,-0.51167 z"
        style="stroke-width:0.20466816;fill:#ffffff"
        id="text8" />
    <path
        d="m -261.22802,97.402522 q 0.4264,0.170557 0.0853,0.51167 -1.53501,0.170557 -3.58169,0.341114 -1.44973,1.535011 -2.47307,2.217234 h 3.07002 q 0.59695,-0.42639 1.62029,-1.449728 0.51167,-0.08528 0.42639,0.341113 -2.30252,2.387795 -5.45782,3.411135 3.49642,0 6.05477,-0.25583 -0.42639,-0.68223 -0.85278,-1.44974 0,-0.42639 0.51167,-0.25583 1.02334,1.62029 1.70556,3.24058 -0.0853,0.42639 -0.51167,0.17055 -0.25583,-0.59694 -0.59695,-1.19389 l -3.24057,0.17055 v 3.49642 q 0.0853,0.85278 -0.85279,0.85278 -0.85278,0 -1.62029,-0.34111 -0.25583,-0.51167 0.25584,-0.51167 1.79084,0.59695 1.70557,0 v -3.49642 l -3.41114,0.0853 q -0.51167,-0.0853 -0.17056,-0.59695 1.02334,-0.17055 3.75225,-1.70557 h -2.98474 q -0.68223,0 -0.34112,-0.51167 0.85279,-0.42639 2.72891,-2.217234 l -3.58169,0.08528 q -0.34111,-0.255835 0,-0.51167 4.51976,0 7.76033,-0.426392 z m -6.14004,6.310598 q 0.34111,-0.25583 0.51167,0.17056 -0.85278,1.9614 -2.13196,3.32586 -0.59695,0.17055 -0.42639,-0.34112 1.27917,-1.44973 2.04668,-3.1553 z m 4.26392,0.17056 q 0.0853,-0.51167 0.51167,-0.34111 1.1939,1.70556 2.04668,3.32585 0,0.51167 -0.51167,0.25584 -0.85278,-1.53501 -2.04668,-3.24058 z"
        style="stroke-width:0.20466816;fill:#ffffff"
        id="text9" />
    <path
        d="m -252.52962,97.743636 q 0,-0.426392 0.42639,-0.255836 0.42639,0.682228 0.68223,1.279176 h 2.30252 q 0.34111,0.255836 0,0.511671 h -2.81419 q -0.76751,1.620293 -1.79085,2.814183 1.62029,-0.17055 3.5817,-0.42639 -0.4264,-0.93806 -0.85279,-1.62029 0.0853,-0.42639 0.42639,-0.255833 1.1939,2.131963 1.44974,3.155303 -0.0853,0.34111 -0.4264,0.17055 -0.17055,-0.51167 -0.42639,-1.02334 l -1.10862,0.17056 v 3.75225 q 0,0.68223 0.68223,0.59695 h 0.34111 q 0.59695,0.17056 0.51167,-1.87613 0.25584,-0.34111 0.51167,0 0.0853,2.55836 -1.10861,2.3878 h -0.4264 q -1.02334,0.0853 -1.02334,-0.93806 v -3.83753 l -1.19389,0.0853 q 0.17055,3.75225 -1.79085,4.94614 -0.42639,0 -0.34111,-0.42639 1.79084,-1.02334 1.62028,-4.43447 l -0.85278,0.0853 q -0.42639,0 -0.34111,-0.42639 1.19389,-1.27917 1.9614,-2.899463 h -1.9614 q -0.34112,-0.255835 0,-0.511671 h 2.47307 q -0.25583,-0.596948 -0.51167,-1.02334 z m -3.32586,6.140044 q 0.17056,-0.51167 0.51167,-0.0853 0.25584,1.10862 0.4264,2.3878 -0.17056,0.51167 -0.51168,0.0853 -0.17055,-1.27918 -0.42639,-2.3878 z m -1.70557,0.42639 q -0.0853,1.44974 -0.59694,2.81419 -0.4264,0.34111 -0.51167,-0.0853 0.51167,-1.44973 0.59694,-2.81419 0.34112,-0.42639 0.51167,0.0853 z m 1.10862,-0.25583 q 0.17056,1.36445 0.25584,2.64363 -0.25584,0.51167 -0.51167,0.0853 -0.0853,-1.1939 -0.25584,-2.64363 0.17056,-0.4264 0.51167,-0.0853 z m -0.42639,-6.481161 q 0.34112,-0.255835 0.42639,0.255835 -0.42639,1.108619 -1.44973,2.558356 h 1.44973 q 0.51167,-0.852788 0.93807,-1.876129 0.42639,-0.426392 0.51167,0.170557 -0.85279,2.217242 -2.72891,4.093362 l 2.38779,-0.0853 -0.42639,-1.44973 q 0.0853,-0.42639 0.51167,-0.17056 0.42639,1.44974 0.68223,2.55836 -0.17056,0.51167 -0.51167,0.0853 l -0.17056,-0.59695 -2.98474,0.17056 q -0.51167,-0.0853 -0.17056,-0.59695 0.76751,-0.68222 1.62029,-1.79084 h -1.44973 q -0.59695,0 -0.25584,-0.59695 0.93806,-1.1939 1.62029,-2.728911 z"
        style="stroke-width:0.20466816;fill:#ffffff"
        id="text0" />
  </g>
</svg>
