<?xml version="1.0" encoding="UTF-8"?>
<svg
   xmlns="http://www.w3.org/2000/svg"
   width="100"
   height="100"
   viewBox="0 0 100 100">
  <path
    d="m 38.461542,84.6154 q 0,3.125025 -2.283651,5.408625 -2.28366,2.28368 -5.408659,2.28368 -3.124998,0 -5.408649,-2.28368 -2.28366,-2.2836 -2.28366,-5.408625 0,-3.12501 2.28366,-5.4087 2.283651,-2.2836 5.408649,-2.2836 3.124999,0 5.408659,2.2836 2.283651,2.28369 2.283651,5.4087 z m 53.846154,0 q 0,3.125025 -2.283651,5.408625 -2.28366,2.28368 -5.408659,2.28368 -3.124999,0 -5.40865,-2.28368 -2.283652,-2.2836 -2.283652,-5.408625 0,-3.12501 2.283652,-5.4087 2.283651,-2.2836 5.40865,-2.2836 3.124999,0 5.408659,2.2836 2.283651,2.28369 2.283651,5.4087 z M 100,19.230796 V 50 q 0,1.44227 -0.991589,2.55412 -0.991582,1.11176 -2.43389,1.29199 l -62.740383,7.33176 q 0.781254,3.60571 0.781254,4.20674 0,0.96148 -1.442312,3.84619 h 55.288457 q 1.562508,0 2.704334,1.1418 1.141825,1.1418 1.141825,2.70431 0,1.56251 -1.141825,2.70431 -1.141826,1.14188 -2.704334,1.14188 H 26.923082 q -1.562499,0 -2.704325,-1.14188 -1.141834,-1.1418 -1.141834,-2.70431 0,-0.66102 0.480776,-1.89302 0.480768,-1.232 0.961536,-2.16345 0.480768,-0.93153 1.292069,-2.40383 0.811292,-1.4724 0.931488,-1.77287 L 16.105773,15.384603 H 3.8461534 q -1.5625,0 -2.704325,-1.1418 Q 2.440918e-6,13.101003 2.440918e-6,11.538495 q 0,-1.5625083 1.141825959082,-2.7043933 1.141825,-1.141801 2.704325,-1.141801 H 19.230772 q 0.961535,0 1.712743,0.390585 0.751199,0.390585 1.171873,0.931531 0.420673,0.540862 0.781254,1.4723933 0.360571,0.931531 0.480767,1.562508 0.120188,0.630977 0.330525,1.772777 0.210337,1.141801 0.270431,1.562508 h 72.175482 q 1.562495,0 2.704329,1.1418 Q 100,17.668288 100,19.230796 Z"
    fill="#757575"/>
</svg>
