<?xml version="1.0" encoding="UTF-8" standalone="no"?>
<svg
   xmlns:dc="http://purl.org/dc/elements/1.1/"
   xmlns:cc="http://creativecommons.org/ns#"
   xmlns:rdf="http://www.w3.org/1999/02/22-rdf-syntax-ns#"
   xmlns:svg="http://www.w3.org/2000/svg"
   xmlns="http://www.w3.org/2000/svg"
   xmlns:sodipodi="http://sodipodi.sourceforge.net/DTD/sodipodi-0.dtd"
   xmlns:inkscape="http://www.inkscape.org/namespaces/inkscape"
   viewBox="0 0 200 100"
   height="100"
   width="200"
   version="1.1"
   id="svg10"
   sodipodi:docname="ad1.svg"
   inkscape:version="0.92.2 (5c3e80d, 2017-08-06)">
  <metadata
     id="metadata16">
    <rdf:RDF>
      <cc:Work
         rdf:about="">
        <dc:format>image/svg+xml</dc:format>
        <dc:type
           rdf:resource="http://purl.org/dc/dcmitype/StillImage" />
      </cc:Work>
    </rdf:RDF>
  </metadata>
  <defs
     id="defs14" />
  <sodipodi:namedview
     pagecolor="#ffffff"
     bordercolor="#666666"
     borderopacity="1"
     objecttolerance="10"
     gridtolerance="10"
     guidetolerance="10"
     inkscape:pageopacity="0"
     inkscape:pageshadow="2"
     inkscape:window-width="1920"
     inkscape:window-height="1001"
     id="namedview12"
     showgrid="false"
     inkscape:zoom="3.337544"
     inkscape:cx="104.65928"
     inkscape:cy="67.343287"
     inkscape:window-x="-9"
     inkscape:window-y="-9"
     inkscape:window-maximized="1"
     inkscape:current-layer="svg10"
     inkscape:snap-bbox="true"
     inkscape:bbox-paths="true"
     inkscape:snap-bbox-edge-midpoints="true"
     inkscape:bbox-nodes="true"
     inkscape:snap-bbox-midpoints="true"
     inkscape:object-paths="true"
     inkscape:snap-intersection-paths="true"
     inkscape:snap-smooth-nodes="true"
     inkscape:snap-midpoints="true"
     inkscape:snap-object-midpoints="true"
     inkscape:snap-center="true"
     inkscape:snap-text-baseline="true"
     inkscape:snap-grids="true"
     inkscape:snap-page="true" />
  <g
     id="g4607"
     transform="translate(0.3756845,-101.19831)">
    <rect
       y="102.69831"
       x="1.1243155"
       height="97.000015"
       width="197.00002"
       id="rect4512"
       style="opacity:1;fill:none;fill-opacity:1;stroke:#000000;stroke-width:3;stroke-linecap:square;stroke-linejoin:miter;stroke-miterlimit:4;stroke-dasharray:none;stroke-dashoffset:0;stroke-opacity:1" />
    <g
       id="text4534"
       style="font-style:normal;font-weight:normal;font-size:73.07044983px;line-height:1.25;font-family:sans-serif;letter-spacing:0px;word-spacing:0px;fill:#ff0000;fill-opacity:1;stroke:none;stroke-width:1.37007093"
       aria-label="線上訂餐系統試營運">
      <path
         inkscape:connector-curvature="0"
         id="path4548"
         style="font-style:normal;font-variant:normal;font-weight:normal;font-stretch:normal;font-size:18.26761246px;font-family:DFPChuW4-B5;-inkscape-font-specification:'DFPChuW4-B5, Normal';font-variant-ligatures:normal;font-variant-caps:normal;font-variant-numeric:normal;font-feature-settings:normal;text-align:start;writing-mode:lr-tb;text-anchor:start;fill:#ff0000;stroke-width:1.37007093"
         d="m 131.14443,130.68236 q -0.32111,-0.44598 -0.66006,-0.85629 -0.24975,-0.41031 -0.0178,-0.66006 0.17839,-0.19624 0.44599,-0.12488 0.4995,0.24975 1.14172,1.3558 0.19624,0.35679 -0.19623,0.71358 -0.26759,0.16055 -0.48167,0.0892 -0.0892,-0.0535 -0.12487,-0.24976 -0.0535,-0.21407 -0.10704,-0.26759 z m 2.44401,1.21309 q 0.42814,0.0535 0.55302,0.33895 0.0535,0.32111 -0.0892,0.51734 -0.0714,0.10704 -0.21407,0.12488 -0.39247,0.0535 -0.8563,0.12487 -1.0882,0.23192 -3.17542,0.87414 -0.37463,0.10703 -0.6779,0.10703 -0.35679,-0.0714 -0.37463,-0.33895 -0.0535,-0.23191 0.0357,-0.37463 0.0535,-0.14271 0.71358,-0.24975 0.44598,-0.10704 1.40932,-0.39247 1.15956,-0.33895 2.19425,-0.62438 0.21407,-0.0892 0.48167,-0.10703 z m -1.14173,2.49752 q 0.42815,0.0535 0.55302,0.33895 0.0535,0.32111 -0.0892,0.51734 -0.0535,0.0714 -0.14272,0.0892 -0.26759,0.0357 -0.5887,0.0714 -0.74926,0.16056 -2.17642,0.60654 -0.24975,0.0714 -0.46382,0.0714 -0.39247,-0.0714 -0.41031,-0.37463 -0.0714,-0.24975 0.0714,-0.39247 0.0357,-0.0892 0.48166,-0.16055 0.30327,-0.0535 0.94549,-0.26759 0.80278,-0.23192 1.49852,-0.42815 0.14271,-0.0535 0.32111,-0.0714 z m 0.21407,1.96234 q 0.42815,0.0535 0.55303,0.33895 0.0535,0.32111 -0.0892,0.51735 -0.0535,0.0892 -0.16056,0.10703 -0.28543,0.0357 -0.62438,0.0892 -0.78493,0.19623 -2.30129,0.71358 -0.26759,0.0714 -0.4995,0.0714 -0.39247,-0.0714 -0.41031,-0.37463 -0.0714,-0.24975 0.0714,-0.39247 0.0357,-0.10704 0.4995,-0.19623 0.32111,-0.0714 1.01685,-0.30328 0.8563,-0.24975 1.60555,-0.48166 0.16056,-0.0714 0.33895,-0.0892 z m -2.31913,6.0119 q 0.0178,-0.0535 0.0357,-0.0892 0.0178,-0.12487 0.41031,-0.21407 0.24975,-0.0892 0.73142,-0.30327 0.69574,-0.80278 1.10604,-1.81963 -0.30327,0.0178 -1.71258,0.46383 -0.74926,0.28543 -1.32012,0.51734 0.28543,0.74926 0.74925,1.445 z m -0.99901,-2.26561 q 0.74926,-0.33895 2.53321,-0.87413 0.90981,-0.23192 1.40931,-0.2676 0.30328,0 0.48167,0.21408 0.14272,0.23191 0.0535,0.57086 -0.33895,0.74926 -0.83846,1.3558 0.10704,-0.0535 0.21408,-0.0714 0.42814,0.0535 0.55302,0.33895 0.0535,0.32111 -0.0892,0.51735 -0.0357,0.0892 -0.12487,0.10703 -0.23192,0.0357 -0.51735,0.10704 -0.64222,0.21407 -1.90882,0.80278 -0.19623,0.0713 -0.33895,0.0892 0.0714,0.33895 -0.24975,0.57087 -0.42815,0.12487 -0.60654,-0.23192 -0.42815,-0.33895 -1.07037,-1.78394 -0.21408,-0.64222 -0.44599,-1.21309 -0.14271,-0.33895 -0.0714,-0.44598 0.10704,-0.41031 0.55303,-0.30327 0.28543,0.10703 0.42814,0.35678 z m 14.25374,3.72845 q -0.0178,0.32111 -0.0357,0.4995 -0.0178,0.12488 -0.0535,0.12488 -0.0714,0.0535 -0.1784,-0.0178 -2.5332,-2.64024 -4.62042,-10.45393 -1.60555,0.42815 -2.87215,0.74926 -0.39247,0.0892 -0.7671,0.23191 -0.35679,0.0535 -0.42815,-0.26759 -0.0535,-0.44599 0.28544,-0.6779 1.74826,-0.39247 3.55005,-0.85629 -0.23191,-0.90982 -0.44599,-1.85531 -0.17839,-0.82061 -0.14271,-1.19524 0.0357,-0.32111 0.35679,-0.39247 0.39246,-0.0535 0.5887,0.24975 0.0357,0.21408 0.0714,0.49951 0.23191,1.28444 0.4995,2.46184 1.42716,-0.39246 2.88999,-0.82061 0.48167,-0.0535 0.62439,0.32111 0.0535,0.44599 -0.23192,0.62438 -0.66006,0.0178 -0.98117,0.12488 -1.12388,0.30327 -2.08722,0.57086 1.32013,5.53023 3.15759,8.6343 0.0535,0.0892 0.0892,0.0892 0.0178,0 0.0535,-0.0714 0.28543,-1.58771 0.53518,-3.46086 0.0535,-0.19623 0.23191,-0.19623 0.12488,0.0178 0.16056,0.24975 0.0357,0.26759 -0.1784,3.35382 -0.0535,0.89198 -0.0713,1.48068 z m -5.44104,-7.51042 q 0.42815,0.0535 0.55302,0.33895 0.0535,0.32111 -0.0892,0.51735 -0.0535,0.10703 -0.17839,0.12487 -0.30327,0.0535 -0.66006,0.14272 -0.21407,0.0714 -0.48167,0.16055 0.0357,0.37463 -0.10703,2.22994 0,0.19623 -0.0357,0.37463 1.01685,-0.51735 2.26561,-1.24877 0.42815,-0.17839 0.53518,0.0535 0.0892,0.24975 -0.17839,0.37463 -0.49951,0.55302 -3.05055,2.15858 l -1.58771,0.99901 q -0.33895,0.0178 -0.49951,-0.21408 -0.12487,-0.33895 0.0714,-0.62438 0.0892,-0.26759 0.39247,-0.48166 0.4995,-0.23192 1.14173,-0.53519 -0.0178,-0.0535 -0.0178,-0.0892 0,-0.39246 0.0713,-1.19524 0.12488,-0.96333 0.12488,-1.48068 -0.53518,0.19624 -1.15956,0.46383 -0.30328,0.10704 -0.53519,0.10704 -0.35679,-0.0714 -0.37463,-0.33895 -0.0535,-0.23192 0.0535,-0.37463 0.0357,-0.14272 0.55302,-0.24975 0.35679,-0.10704 1.10605,-0.42815 0.90981,-0.35679 1.71259,-0.66006 0.17839,-0.0892 0.37463,-0.12488 z m 3.44302,-5.06641 q -0.44599,-0.44598 -0.90982,-0.83845 -0.24975,-0.39247 -0.0178,-0.64222 0.1784,-0.19624 0.44599,-0.12488 0.60654,0.24976 1.42716,1.3558 0.16055,0.33895 -0.1784,0.66006 -0.23191,0.1784 -0.44598,0.0892 -0.10704,-0.0535 -0.16056,-0.24975 -0.0892,-0.23192 -0.16055,-0.24976 z" />
      <path
         inkscape:connector-curvature="0"
         id="path4550"
         style="font-style:normal;font-variant:normal;font-weight:normal;font-stretch:normal;font-size:18.26761246px;font-family:DFPChuW4-B5;-inkscape-font-specification:'DFPChuW4-B5, Normal';font-variant-ligatures:normal;font-variant-caps:normal;font-variant-numeric:normal;font-feature-settings:normal;text-align:start;writing-mode:lr-tb;text-anchor:start;fill:#ff0000;stroke-width:1.37007093"
         d="m 152.31988,139.3345 q 0.17839,-0.0357 0.35679,-0.0535 0.4995,-0.10703 1.48067,-0.37462 0.99901,-0.30328 1.89099,-0.53519 0.33895,-0.4995 0.76709,-1.445 -2.33697,0.24976 -4.51338,1.15957 -0.24975,0.12488 -0.41031,0.17839 0.1784,0.53519 0.42815,1.07037 z m -0.66006,-2.08721 q 1.51635,-0.62439 5.58375,-1.30229 0.44599,-0.0535 0.71358,0.19624 0.23191,0.23191 0.0892,0.55302 -0.42815,0.60654 -0.89198,1.49852 0.24976,0.10703 0.33895,0.28543 0.0535,0.30327 -0.0892,0.4995 -0.0714,0.10704 -0.23192,0.12488 -0.39247,0.0535 -0.87413,0.12488 -0.60654,0.12487 -1.51636,0.37462 0.0178,0.0357 0.0357,0.10704 0.0178,0.0892 -0.10703,0.49951 -0.0178,0.0357 -0.1784,0.60654 -0.0178,0.10703 -0.0535,0.17839 1.26661,-0.23191 2.81864,-0.48166 0.99901,-0.1784 1.81962,-0.16056 0.30327,0.0535 0.46383,0.33895 0.12488,0.1784 0.0714,0.44599 0.0714,0.0892 -0.96333,1.10605 l -0.83846,0.89197 0.99901,-0.0357 q 0.64222,0 0.82062,0.0178 0.35679,0.0892 0.42814,0.4995 -0.12487,0.57087 -0.73141,0.55303 -0.83846,-0.24975 -3.49654,0.0892 -0.55302,0.10704 -0.78494,0.10704 -0.14271,-0.0357 -0.28543,-0.17839 -0.24975,-0.44599 0.12488,-0.62438 0.17839,-0.0892 1.07037,-0.21408 0.6779,-0.0357 0.90981,-0.21407 0.57086,-0.82062 1.14173,-1.60555 0.10703,-0.16056 -0.1784,-0.16056 -1.46283,0.0357 -4.67394,0.8563 -0.98117,0.26759 -1.71259,0.60654 l 0.48167,1.14172 0.17839,0.39247 q -0.0535,0.42815 -0.44598,0.49951 -0.48167,-0.0357 -0.57087,-0.49951 -0.46382,-1.58771 -1.14172,-2.44401 -0.28543,-0.24975 -0.23192,-0.32111 0.0178,-0.23191 0.30328,-0.33895 0.35678,-0.0713 0.60654,0.19624 0.17839,0.0714 0.42814,0.46382 0.96334,-0.39246 2.60457,-0.76709 -0.0714,-0.0892 -0.0892,-0.19624 0.12488,-0.48166 0.17839,-1.07036 -0.37462,0.12487 -0.80277,0.24975 -0.14272,0.0357 -0.26759,0.0535 -0.0357,0.26759 -0.2676,0.42814 -0.42814,0.12488 -0.60654,-0.23191 -0.32111,-0.32111 -0.78493,-1.73043 -0.16056,-0.62438 -0.32111,-1.15956 -0.10704,-0.32111 -0.0535,-0.42815 0.10703,-0.39247 0.53518,-0.28543 0.28543,0.10704 0.41031,0.33895 z m -1.58771,-5.67295 q -1.08821,-0.60655 -1.39148,-1.83747 -0.0357,-0.51734 0.51734,-0.62438 0.23191,-0.0178 0.35679,0.0714 0.14272,0.0892 0.14272,0.24975 v 0.33895 q 0.10703,0.46383 0.48166,0.98117 0.1784,0.21407 0.37463,0.39247 0.0714,0.21407 -0.0892,0.37463 -0.17839,0.12487 -0.39246,0.0535 z m 3.58573,-2.58673 q 0.17839,-0.17839 0.55302,-0.0535 0.35679,0.14272 0.35679,0.53519 0,0.14271 -0.33895,0.55302 -0.44599,0.53519 -1.03469,0.98117 -0.17839,0.14272 -0.30327,0.21408 -0.33895,0.24975 -0.5887,0.14271 -0.28543,-0.16055 0.10704,-0.4995 0.80277,-0.83846 1.1774,-1.60556 0,-0.0357 0.0357,-0.12487 0,-0.0892 0.0357,-0.14272 z m 2.88999,1.60555 q 0.60654,-1.1774 1.01685,-2.40832 0.0357,-0.14272 0.0535,-0.28543 0.0714,-0.19624 0.28543,-0.21408 0.41031,0 0.55302,0.42815 -0.0535,0.92765 -1.33796,3.2111 0.12488,0.0357 0.30327,0.16056 0.64223,0.42814 1.6234,1.15956 l 0.17839,0.12488 q 0.12488,0.0535 0.21407,0.0892 0.1784,0.21407 0.1784,0.48166 0.35679,-0.0892 0.6779,-0.16055 0.62438,-0.0178 0.66006,0.48166 0.0178,0.30327 -0.62438,1.03469 -0.69574,0.69574 -1.33796,1.32012 -0.32111,0.46383 -0.71358,0.32111 -0.23191,-0.28543 0.16055,-0.80277 0.51735,-0.6779 0.89198,-1.17741 0.0535,-0.16055 -0.14272,-0.10704 -1.99802,0.32112 -4.29931,0.80278 -2.87215,0.53518 -5.72647,1.08821 0.26759,0.64222 0.66006,1.21308 0.0892,0.37463 -0.24975,0.62438 -0.42815,0.12488 -0.60654,-0.23191 -0.26759,-0.26759 -0.6779,-1.39148 -0.14272,-0.51734 -0.28543,-0.92765 -0.10704,-0.26759 -0.0535,-0.35679 0.10704,-0.39247 0.53518,-0.28543 0.26759,0.10704 0.41031,0.33895 l 0.0178,0.10704 q 4.7453,-0.80278 9.75819,-1.71259 -0.87414,-0.73142 -1.81963,-1.30228 -0.10703,-0.0535 -0.19623,-0.12488 -0.24975,0.42815 -0.53519,0.85629 -0.16055,0.24976 -0.32111,0.42815 -0.28543,0.48167 -0.5887,0.44599 -0.33895,-0.0178 -0.37463,-0.33895 -0.0535,-0.12488 0.24975,-0.57087 0.14272,-0.16055 0.2676,-0.35678 0.46382,-0.6779 0.83845,-1.37364 -0.98117,-0.60654 -1.24876,-1.81963 -0.0357,-0.48166 0.48166,-0.57086 0.21408,-0.0178 0.33895,0.0714 0.12488,0.0713 0.12488,0.21407 v 0.32111 q 0.10704,0.48167 0.46383,0.98117 0.10703,0.12488 0.19623,0.21407 z m 3.10407,-1.78394 q 0.17839,-0.19624 0.55302,-0.0714 0.35679,0.14272 0.35679,0.53518 0,0.12488 -0.41031,0.49951 -0.51734,0.44599 -1.23092,0.85629 -0.17839,0.10704 -0.33895,0.1784 -0.33895,0.24975 -0.5887,0.14271 -0.28543,-0.16055 0.0892,-0.4995 1.03468,-0.74926 1.48067,-1.42716 0.0178,-0.0357 0.0535,-0.10704 -0.0178,-0.0713 0.0357,-0.10703 z m -8.49159,3.81764 q -0.33895,0.78494 -0.74926,1.71259 -0.0713,0.19624 -0.17839,0.37463 -0.28543,0.21407 -0.55302,0.0714 -0.23192,-0.14272 -0.19624,-0.49951 0.0178,-0.10703 0.0892,-0.24975 0.12488,-0.24975 0.16056,-0.28543 0.0178,-0.0178 0.0535,-0.0357 1.40932,-3.08623 1.73043,-4.79882 0.0357,-0.26759 0.0357,-0.48166 0.10704,-0.32111 0.53518,-0.28543 0.33895,0.0714 0.33895,0.37463 -0.0178,1.01685 -0.94549,3.31814 0.10704,0.0357 0.24976,0.10703 0.69573,0.32111 1.74826,0.89198 l 0.19624,0.0892 q 0.12487,0.0535 0.21407,0.0714 0.26759,0.28543 0.14272,0.74926 -0.1784,0.24975 -0.46383,0.19623 -0.14272,-0.0535 -0.35679,-0.19623 -0.98117,-0.62438 -2.01586,-1.10605 -0.0178,0 -0.0357,-0.0178 z" />
      <path
         inkscape:connector-curvature="0"
         id="path4552"
         style="font-style:normal;font-variant:normal;font-weight:normal;font-stretch:normal;font-size:18.26761246px;font-family:DFPChuW4-B5;-inkscape-font-specification:'DFPChuW4-B5, Normal';font-variant-ligatures:normal;font-variant-caps:normal;font-variant-numeric:normal;font-feature-settings:normal;text-align:start;writing-mode:lr-tb;text-anchor:start;fill:#ff0000;stroke-width:1.37007093"
         d="m 166.82336,134.69624 q -0.5887,-0.55302 -1.21308,-1.05253 -0.24976,-0.4103 -0.0178,-0.66006 0.17839,-0.19623 0.44598,-0.12487 0.83846,0.30327 1.87315,1.67691 0.19623,0.35679 -0.21408,0.71357 -0.24975,0.1784 -0.46382,0.0892 -0.14272,-0.0535 -0.21408,-0.30327 -0.0892,-0.28543 -0.19623,-0.33895 z m -1.71259,8.8127 q -0.35679,0.0357 -0.55302,-0.19624 -0.19624,-0.35679 -0.0535,-0.62438 0.14271,-0.37463 1.1774,-0.46382 0.55303,-1.58772 1.76611,-3.88901 0.0714,-0.21407 -0.10704,-0.17839 -1.8553,0.5887 -2.10505,0.60654 -0.35679,0.0178 -0.51735,-0.30327 -0.19623,-0.42815 0.16056,-0.53519 1.67691,-0.46382 3.3895,-1.19524 0.51734,-0.0714 0.64222,0.53518 0.0178,0.24976 -0.16056,0.51735 -1.30228,1.81962 -2.17641,4.49554 1.92666,0.14272 6.97523,0.53519 -0.21408,-0.12488 -0.32111,-0.42815 -0.0178,-0.21407 0.0178,-1.30228 -0.48167,0.10704 -0.94549,0.19623 -1.33796,0.2676 -2.42617,0.58871 -0.1784,0.0357 -0.33895,-0.0178 -0.32111,-0.12488 -0.37463,-0.37463 -0.0535,-0.19624 0.0892,-0.33895 0.0713,-0.16056 2.72943,-0.73142 0.64223,-0.12488 1.30229,-0.24975 0.0357,-0.66006 0.0713,-1.46284 -0.37463,0.0892 -0.76709,0.21408 -0.12488,0.0178 -0.21408,0.0178 -0.0535,0.46383 -0.46382,0.53519 -0.51735,-0.0357 -0.60655,-0.53519 -0.44598,-2.67591 -1.10604,-4.13875 -0.30327,-0.42815 -0.23191,-0.53519 0.0178,-0.21407 0.28543,-0.32111 0.33895,-0.0892 0.57086,0.1784 0.0892,0.0535 0.17839,0.19623 1.28445,-0.32111 2.56889,-0.57086 0.0178,-0.73142 0.0357,-1.2666 -0.60655,0.0892 -1.28445,0.21407 -1.23092,0.23191 -2.22993,0.49951 -0.19623,0.0357 -0.33895,-0.0178 -0.35679,-0.12488 -0.41031,-0.39247 -0.0535,-0.23191 0.0892,-0.37463 0.0714,-0.12488 2.55104,-0.5887 0.7671,-0.14272 1.64124,-0.28543 0,-0.51735 -0.0178,-0.66006 -0.0178,-0.1784 -0.12488,-0.30327 0.0535,-0.35679 0.55302,-0.37463 0.48167,0.10703 0.49951,0.66006 0,0.26759 -0.0178,0.53518 0.73142,-0.12488 1.46283,-0.21407 -0.26759,-0.41031 0.2676,-0.94549 0.46382,-0.57087 0.90981,-1.24877 -2.17642,-0.0178 -5.04857,0.66006 -0.64222,0.14272 -1.08821,0.33895 -0.24975,0.0892 -0.39246,0.0535 0.19623,0.53519 0.48166,1.01685 0.0892,0.39247 -0.26759,0.66006 -0.46383,0.14272 -0.66006,-0.24975 -0.23191,-0.26759 -0.57086,-1.39148 -0.12488,-0.4995 -0.24976,-0.92765 -0.0713,-0.24975 -0.0357,-0.33895 0.12488,-0.44599 0.57087,-0.32111 0.30327,0.12487 0.44598,0.37463 l 0.0357,0.23191 q 0,0.0535 0.0178,0.0714 0.12488,-0.12488 0.37463,-0.19624 0.44599,-0.12487 1.07037,-0.24975 3.42518,-0.6779 5.86918,-0.62438 0.49951,-0.0178 0.71358,0.17839 0.21408,0.24976 0.0357,0.71358 l -1.56987,1.98018 q -0.0357,0.0714 -0.0714,0.10704 0.41031,-0.0357 0.83845,-0.0892 0.35679,-0.0357 0.44599,-0.0357 0.39247,0.12488 0.33895,0.57087 -0.0892,0.33895 -0.46383,0.44598 -1.23092,0.0178 -3.47869,0.37463 -0.0357,0.60654 -0.0535,1.19525 1.58771,-0.30327 2.55104,-0.35679 0.66006,0.0714 0.92766,0.48166 0.10703,0.30327 -0.10704,0.64222 l -1.98018,4.22796 q -0.23191,0.30327 -0.49951,0.21407 -0.24975,-0.17839 -0.17839,-0.42815 -0.12488,0.0178 -0.24975,0.0357 -0.2676,0.0535 -0.62438,0.12488 -0.0357,0.7671 -0.0714,1.51635 1.7661,-0.28543 3.889,-0.57086 0.37463,-0.0714 0.48167,-0.0535 0.39247,0.12488 0.33895,0.5887 -0.0892,0.33895 -0.46383,0.44599 -1.445,0.0178 -4.26363,0.51735 0,0.5887 0.0178,1.01684 0.0178,0.23192 0.0535,0.48167 -0.0892,0.37463 -0.35679,0.42815 2.55104,0.19623 5.86918,0.44598 0.6779,0.0357 0.82062,0.44599 0.0535,0.69574 -0.53519,0.71358 -0.21407,-0.0178 -0.82061,-0.14272 -1.17741,-0.26759 -10.82856,-0.85629 -1.46283,-0.0714 -2.35481,-0.0357 -0.55302,0.0178 -0.94549,0.10704 z m 6.24381,-8.33103 q 0.0357,0.12487 0.0892,0.21407 l 0.19623,0.7671 q 0.0178,-0.0178 0.0357,-0.0357 0.90982,-0.16056 1.81963,-0.37463 0.0178,-0.62438 0.0357,-1.14173 -1.03469,0.23192 -2.17642,0.57087 z m 0.51735,1.87314 0.24975,1.03469 q 0.0892,-0.0178 0.14272,-0.0178 0.32111,-0.0714 1.01685,-0.24975 0.0713,-0.0178 0.10703,-0.0357 0.0357,-0.53518 0.0535,-1.08821 -0.6779,0.14272 -1.23092,0.26759 -0.19624,0.0535 -0.33895,0.0892 z m 4.69178,-2.65808 q 0.17839,-0.30327 -0.19624,-0.26759 -0.53518,0 -1.9445,0.30327 -0.0178,0.53518 -0.0357,1.10605 0.49951,-0.12488 0.99901,-0.24976 0.48167,-0.0713 0.62438,0.32111 0.0535,0.44599 -0.23191,0.62439 -0.33895,0.0178 -0.51734,0.0535 -0.48167,0.10704 -0.90982,0.19624 -0.0178,0.53518 -0.0357,1.07037 0.30328,-0.0714 0.57087,-0.14272 0.16055,-0.0535 0.35679,-0.0714 0.17839,0.0178 0.26759,0.0892 0.14271,-0.39247 0.23191,-0.64222 0.64222,-1.65907 0.82062,-2.39049 z" />
    </g>
    <g
       id="text4516"
       style="font-style:normal;font-weight:normal;font-size:73.07044983px;line-height:1.25;font-family:sans-serif;letter-spacing:0px;word-spacing:0px;fill:#000000;fill-opacity:1;stroke:none;stroke-width:1.37007093"
       aria-label="線上訂餐系統試營運">
      <path
         id="path4574"
         style="font-style:normal;font-variant:normal;font-weight:normal;font-stretch:normal;font-size:18.26761246px;font-family:DFPChuW4-B5;-inkscape-font-specification:'DFPChuW4-B5, Normal';font-variant-ligatures:normal;font-variant-caps:normal;font-variant-numeric:normal;font-feature-settings:normal;text-align:start;writing-mode:lr-tb;text-anchor:start;stroke-width:1.37007093"
         d="m 31.778607,131.66353 q 0.178395,-0.30327 -0.196234,-0.26759 -0.535184,0 -2.051539,0.33895 -1.266602,0.26759 -2.765117,0.69574 0.01784,0.0892 0.07136,0.17839 l 0.267592,0.98117 q 0.07136,-0.0357 0.160555,-0.0357 0.392468,-0.0714 1.213084,-0.30328 0.99901,-0.24975 1.873144,-0.46382 0.178394,-0.0714 0.410307,-0.0892 0.428148,0.0535 0.553024,0.33895 v 0.0357 q 0.356789,-0.94549 0.463826,-1.40932 z m -0.66006,1.96234 q -0.05352,0.0178 -0.0892,0.0178 -0.32111,0.0357 -0.713578,0.0892 -0.927652,0.1784 -2.729438,0.64222 -0.142716,0.0357 -0.267592,0.0357 l 0.356789,1.24876 q 0.07136,-0.0178 0.124876,-0.0178 0.392468,-0.0892 1.230923,-0.32111 0.856295,-0.21407 1.605552,-0.42814 0.01784,-0.0892 0.07136,-0.1784 0.285431,-0.69574 0.410308,-1.08821 z m 0.374628,1.12389 q 0.35679,0.0892 0.463827,0.35679 0.07136,0.33895 -0.107037,0.55302 -0.07136,0.0714 -0.196234,0.0892 -0.321111,0.0357 -0.731418,0.0892 -0.410308,0.0892 -0.909813,0.21407 -0.124876,1.21308 -0.124876,2.8008 v 0.4103 q 0.05352,0 0.0892,0.0178 0.107037,0.0535 0.214074,0.10704 0.945491,-0.94549 2.033699,-1.67691 0.66006,-0.46382 1.302281,-0.69574 0.374628,-0.0892 0.553023,0.14272 0.214074,0.32111 -0.124876,0.60654 -0.695739,0.35679 -1.213084,0.6779 -0.981171,0.60654 -1.962341,1.33796 1.248762,0.83845 3.104067,2.26561 l 0.356789,0.24975 q 0.267592,0.12488 0.428147,0.19624 0.33895,0.32111 0.178395,0.85629 -0.196234,0.30327 -0.535184,0.23192 -0.267592,-0.10704 -0.642221,-0.49951 -1.783946,-1.53419 -3.67493,-2.76512 -0.05352,-0.0357 -0.07136,-0.0357 0.07136,1.71259 0.30327,3.72845 -0.03568,0.26759 -0.231913,0.42815 -0.249752,0.10704 -0.445986,-0.0178 -0.160555,-0.14272 -0.428147,-0.48167 -0.33895,-0.46382 -1.69475,-1.39147 -0.214073,-0.16056 -0.160555,-0.37463 0.0892,-0.16056 0.33895,-0.10704 1.534194,0.92765 1.569873,0.8563 -0.214074,-1.96235 -0.178395,-3.85333 -0.107036,0.14272 -0.267592,0.33895 -1.177404,1.56987 -2.533204,3.49654 -0.285431,0.4103 -0.392468,0.46382 -0.356789,0.23191 -0.6779,0.10704 -0.285431,-0.23191 -0.196234,-0.57086 0.01784,-0.0714 0.124877,-0.12488 0.160555,0.0178 0.285431,-0.10704 0.142716,-0.0535 1.123886,-1.60555 0.731418,-1.10605 1.480676,-2.21209 -1.070368,0.14271 -2.497525,0.99901 -0.267592,0.0892 -0.445987,-0.10704 -0.285431,-0.48167 0.267592,-0.83845 1.480676,-0.78494 3.211104,-1.03469 0.33895,-0.0178 0.517344,0.0892 0.01784,-0.85629 0.03568,-1.65907 -0.410307,0.10704 -0.874134,0.23192 -0.196234,0.0357 -0.338949,0.0535 -0.0892,0.28544 -0.410308,0.33895 -0.517345,-0.0357 -0.588702,-0.53518 -0.499505,-2.88999 -1.213084,-4.45987 -0.285431,-0.44598 -0.231913,-0.57086 0.01784,-0.19623 0.267592,-0.30327 0.267592,-0.0714 0.463826,0.12488 1.106047,-1.33796 3.086227,-2.83648 0.303271,-0.21407 0.767097,0.0535 0.445987,0.49951 -0.214073,0.7671 -1.248763,0.64222 -3.086228,2.22993 -0.07136,0.0892 -0.124876,0.12488 1.284442,-0.33895 2.622402,-0.60655 1.944501,-0.42814 3.050548,-0.48166 0.624381,0.0714 0.891973,0.48166 0.0892,0.30328 -0.107036,0.64223 l -1.373639,2.96135 z m -9.062448,-5.90486 q 0.249753,0.14271 0.33895,0.42814 0.03568,0.1784 -0.07136,0.32111 -0.499505,0.64223 -2.265612,3.92469 -0.0892,0.14271 0.107037,0.12487 1.159565,-0.42814 2.640241,-1.03469 0.124876,-0.0892 0.214073,-0.19623 0.07136,-0.0892 0.160555,-0.10704 0.374629,-0.0357 0.553024,0.2676 0.107037,0.17839 0.03568,0.53518 -0.07136,0.14271 -0.178395,0.23191 -0.303271,0.21408 -0.570863,0.46383 -0.445986,0.32111 -2.925672,3.81764 -0.05352,0.16056 0.0892,0.10704 1.33796,-0.5887 2.319131,-1.15956 0.285431,-0.12488 0.481665,-0.41031 0.231913,-0.21408 0.588703,-0.0892 0.124876,0.16056 0.428147,0.62438 0.249752,0.41031 0.66006,0.73142 0.142716,0.10704 0.214074,0.37463 0.05352,0.19623 0.01784,0.35679 -0.05352,0.16055 -0.231913,0.21407 -0.160555,0.0535 -0.356789,-0.0357 -0.463826,-0.30327 -0.874134,-0.74926 -0.0892,-0.16055 -0.178395,-0.30327 -0.107036,-0.14271 -0.231913,-0.0535 -0.33895,0.30327 -2.461846,1.14172 -1.409318,0.60654 -1.569873,0.74926 -0.107037,0.0535 -0.214073,0.10704 h -0.196235 q -0.142715,-0.0535 -0.303271,-0.32111 v -0.39247 q 0.07136,-0.10704 0.231914,-0.21408 0.445986,-0.4103 3.086227,-4.13875 0.0892,-0.23192 -0.160555,-0.12488 -0.124876,0.0535 -1.837465,0.74926 -0.570863,0.24975 -0.874134,0.21407 -0.214073,-0.0714 -0.303271,-0.23191 -0.107037,-0.16056 -0.05352,-0.39247 0.01784,-0.12488 0.838455,-1.12389 l 2.087217,-3.74628 q 0.160555,-0.26759 0.231913,-0.51735 0.196234,-0.26759 0.535184,-0.14271 z m -0.374629,11.55997 q 0.517345,0.57086 0.784937,1.51635 0.03568,0.12488 0.05352,0.30328 0.01784,0.33895 -0.214073,0.39246 -0.178395,0.0357 -0.321111,-0.10703 -0.05352,-0.0357 -0.160555,-0.19624 -0.481665,-0.83845 -0.909813,-1.24876 -0.428147,-0.46383 -0.03568,-0.7671 0.160556,-0.17839 0.428148,-0.14271 0.124876,0.0178 0.374628,0.24975 z m 2.01586,-0.90981 q 0.517344,0.51734 0.802776,1.39148 0.03568,0.10703 0.05352,0.26759 0.01784,0.33895 -0.214073,0.39247 -0.178395,0.0357 -0.321111,-0.10704 -0.05352,-0.0357 -0.160555,-0.1784 -0.481665,-0.73141 -0.927652,-1.10604 -0.428147,-0.46383 -0.03568,-0.7671 0.160555,-0.17839 0.428147,-0.14271 0.124876,0.0178 0.374629,0.24975 z m -4.156595,3.76412 q -0.428148,-0.76709 -0.874134,-1.46283 -0.249753,-0.41031 -0.01784,-0.66006 0.160555,-0.19624 0.445987,-0.12488 0.624381,0.42815 1.427157,2.33697 0.196234,0.35679 -0.214073,0.71358 -0.249753,0.1784 -0.463827,0.0892 -0.107036,-0.0714 -0.160555,-0.42815 -0.07136,-0.37463 -0.142715,-0.46383 z"
         inkscape:connector-curvature="0" />
      <path
         id="path4576"
         style="font-style:normal;font-variant:normal;font-weight:normal;font-stretch:normal;font-size:18.26761246px;font-family:DFPChuW4-B5;-inkscape-font-specification:'DFPChuW4-B5, Normal';font-variant-ligatures:normal;font-variant-caps:normal;font-variant-numeric:normal;font-feature-settings:normal;text-align:start;writing-mode:lr-tb;text-anchor:start;stroke-width:1.37007093"
         d="m 52.401029,140.36919 q 0.642221,0.0714 0.606542,0.66006 -0.0892,0.49951 -0.624382,0.48167 -3.443016,-0.46383 -8.081277,0.0714 -4.941532,0.48166 -6.993071,1.2666 -0.499505,0.23191 -0.749257,-0.0535 -0.231913,-0.30327 -0.01784,-0.60654 0.606542,-0.71358 6.118937,-1.39148 0.160555,-2.78296 0.267592,-5.334 0.196234,-4.1566 -0.214074,-5.28048 0,-0.35679 0.267592,-0.46383 0.463826,-0.0357 0.588702,0.33895 0.321111,0.98117 0.249753,3.85333 0.178395,-0.0178 0.392468,-0.0535 0.588703,-0.10704 1.819626,-0.42815 1.516354,-0.35679 2.836475,-0.66006 0.303271,-0.0892 0.64222,-0.12488 0.428148,0.0535 0.553024,0.33895 0.05352,0.32111 -0.0892,0.51735 -0.0892,0.10703 -0.285432,0.12487 -0.481665,0.0535 -1.088207,0.14272 -1.391479,0.24975 -4.085238,0.94549 -0.410308,0.0892 -0.731418,0.0892 0,0.33895 -0.01784,0.6779 -0.07136,2.51536 -0.178395,5.20912 0.356789,-0.0535 0.713579,-0.0892 3.835485,-0.33895 8.099117,-0.23191 z"
         inkscape:connector-curvature="0" />
      <path
         id="path4578"
         style="font-style:normal;font-variant:normal;font-weight:normal;font-stretch:normal;font-size:18.26761246px;font-family:DFPChuW4-B5;-inkscape-font-specification:'DFPChuW4-B5, Normal';font-variant-ligatures:normal;font-variant-caps:normal;font-variant-numeric:normal;font-feature-settings:normal;text-align:start;writing-mode:lr-tb;text-anchor:start;stroke-width:1.37007093"
         d="m 65.37032,142.1353 q 0.0892,-0.16056 0.33895,-0.10704 1.623391,0.78494 1.65907,0.71358 -0.356789,-5.81567 -0.01784,-11.54213 -1.230923,0.28543 -2.729438,0.6779 -1.302281,0.35679 -2.35481,0.78493 -0.178395,0.0357 -0.33895,-0.0178 -0.33895,-0.12487 -0.392468,-0.39247 -0.05352,-0.19623 0.0892,-0.35678 0.07136,-0.19624 2.67592,-0.90982 2.461846,-0.69574 5.958382,-1.2666 0.356789,-0.0714 0.463826,-0.0535 0.410307,0.12488 0.356789,0.60654 -0.0892,0.35679 -0.481666,0.46383 -0.891973,0.0178 -2.283451,0.26759 0.01784,0.0535 0.01784,0.0714 -0.535184,4.67394 0.0892,12.57682 -0.03568,0.37463 -0.231913,0.60654 -0.249753,0.10704 -0.445987,-0.0178 -0.178395,-0.14272 -0.445987,-0.44599 -0.356789,-0.42815 -1.766107,-1.28444 -0.214073,-0.16056 -0.160555,-0.37463 z m -6.903873,-11.59565 q -0.32111,-0.44599 -0.66006,-0.8563 -0.249753,-0.41031 -0.01784,-0.66006 0.178395,-0.19623 0.445987,-0.12487 0.499505,0.24975 1.141726,1.35579 0.196234,0.35679 -0.214074,0.71358 -0.249752,0.1784 -0.463826,0.0892 -0.0892,-0.0535 -0.124876,-0.24975 -0.05352,-0.21408 -0.107037,-0.26759 z m 2.158575,0.28543 q 0.445987,0.0535 0.553024,0.33895 0.05352,0.32111 -0.0892,0.51734 -0.07136,0.10704 -0.231913,0.12488 -0.392468,0.0535 -0.874133,0.14271 -1.123887,0.24976 -3.318141,0.92766 -0.392468,0.10703 -0.713579,0.10703 -0.356789,-0.0714 -0.374628,-0.33895 -0.05352,-0.23191 0.05352,-0.37463 0.05352,-0.14271 0.731418,-0.24975 0.463826,-0.10704 1.462836,-0.41031 1.213084,-0.35679 2.301291,-0.66006 0.231913,-0.0892 0.499505,-0.12487 z m -0.570863,2.96135 q 0.428148,0.0535 0.553024,0.33895 0.05352,0.32111 -0.0892,0.51734 -0.05352,0.0892 -0.160556,0.10704 -0.285431,0.0357 -0.624381,0.10704 -0.802776,0.19623 -2.33697,0.74925 -0.267592,0.0892 -0.499505,0.0892 -0.392468,-0.0714 -0.392468,-0.37463 -0.0892,-0.24975 0.05352,-0.39247 0.03568,-0.10703 0.517345,-0.19623 0.32111,-0.0892 1.016849,-0.33895 0.856295,-0.26759 1.605552,-0.51734 0.160555,-0.0714 0.35679,-0.0892 z m -0.107036,2.67592 q 0.428147,0.0535 0.553023,0.33895 0.05352,0.32111 -0.0892,0.51734 -0.05352,0.0714 -0.142716,0.0892 -0.249753,0.0357 -0.570863,0.0892 -0.731418,0.17839 -2.122896,0.66006 -0.249753,0.0714 -0.463826,0.0714 -0.392469,-0.0714 -0.410308,-0.37463 -0.07136,-0.24976 0.07136,-0.39247 0.03568,-0.10704 0.463826,-0.1784 0.303271,-0.0713 0.927652,-0.28543 0.767097,-0.23191 1.462836,-0.44598 0.142716,-0.0714 0.321111,-0.0892 z m -2.372649,6.67196 q 0.0892,0.35679 -0.249753,0.60654 -0.428147,0.12488 -0.606542,-0.23191 -0.428147,-0.33895 -1.070368,-1.78395 -0.214073,-0.64222 -0.463826,-1.21308 -0.142715,-0.33895 -0.07136,-0.44599 0.107036,-0.39247 0.553023,-0.30327 0.285431,0.10704 0.428147,0.35679 l 0.07136,0.32111 q 0,0.0178 0,0.0357 0.713579,-0.41031 3.264622,-1.19525 1.052529,-0.26759 1.641231,-0.32111 0.392468,0 0.624381,0.21408 0.142716,0.23191 0.05352,0.57086 -0.481666,1.03469 -1.284442,1.83747 0.160555,-0.0535 0.32111,-0.10704 0.160556,-0.0714 0.33895,-0.0892 0.428148,0.0535 0.553024,0.33895 0.05352,0.32111 -0.0892,0.51735 -0.05352,0.0892 -0.160555,0.10703 -0.267592,0.0357 -0.588702,0.10704 -0.767097,0.19623 -2.247773,0.73142 -0.267592,0.0892 -0.481665,0.0892 -0.35679,-0.0713 -0.374629,-0.33895 -0.05352,-0.24975 0.05352,-0.37462 0.03568,-0.12488 0.481666,-0.21408 0.267592,-0.0714 0.767097,-0.24975 0.874134,-0.90981 1.373639,-2.15858 -0.374629,0.0178 -2.069378,0.57087 -1.123887,0.39247 -1.926662,0.74925 0.428147,0.98118 1.159565,1.87315 z"
         inkscape:connector-curvature="0" />
      <path
         id="path4580"
         style="font-style:normal;font-variant:normal;font-weight:normal;font-stretch:normal;font-size:18.26761246px;font-family:DFPChuW4-B5;-inkscape-font-specification:'DFPChuW4-B5, Normal';font-variant-ligatures:normal;font-variant-caps:normal;font-variant-numeric:normal;font-feature-settings:normal;text-align:start;writing-mode:lr-tb;text-anchor:start;stroke-width:1.37007093"
         d="m 85.314842,128.96977 q -1.302281,0.1784 -3.032709,1.14173 -0.267592,0.0892 -0.445986,-0.10704 -0.285432,-0.48166 0.267592,-0.85629 1.730428,-0.83846 3.746287,-1.15957 0.499505,-0.0178 0.695739,0.19624 0.231913,0.21407 0.107037,0.57086 -0.107037,0.23191 -0.6779,0.94549 -0.588702,0.78494 -1.195244,1.64123 0.481666,0.21408 1.052529,0.48167 0.802776,0.35679 1.141726,0.60654 0.30327,0.30327 0.05352,0.66006 -0.32111,0.28543 -0.642221,0.0892 -0.142716,-0.0357 -0.838455,-0.46383 -0.499505,-0.30327 -1.302281,-0.64222 -0.677899,0.94549 -1.391478,1.9445 -0.0892,0.12488 -0.124876,0.1784 1.67691,0.55302 4.959371,1.33796 0.196234,0.0714 0.481666,0.14271 0.124876,0.0178 0.249752,0.0357 0.410308,0.24975 0.303271,0.69574 -0.142716,0.35679 -0.445986,0.35679 -0.0892,-0.0178 -0.428148,-0.14272 -0.410307,-0.16055 -0.945491,-0.30327 -4.495546,-1.12388 -5.69079,-1.67691 -0.01784,-0.0178 -0.03568,-0.0357 -1.141725,1.42716 -5.066408,4.9237 l -1.552033,1.39147 q -0.695739,0.55303 -0.945492,0.55303 -0.267592,0.0357 -0.392468,-0.1784 -0.124876,-0.35679 0.0892,-0.64222 0.33895,-0.17839 0.6779,-0.44598 6.350849,-5.45888 6.618441,-6.42221 0.196235,-0.60654 0.463827,-0.57086 0.553023,0.16055 0.517344,0.57086 0.142716,0.0714 0.303271,0.12488 0.214074,-0.0892 1.498515,-2.08722 0.03568,-0.0714 0.07136,-0.10704 -0.820616,-0.32111 -1.819626,-0.69574 -0.214073,-0.19623 -0.107036,-0.46382 0.178394,-0.2676 0.463826,-0.28544 0.535184,0.0535 1.98018,0.69574 0.660061,-1.01685 1.33796,-1.99802 z m -8.063438,-1.07036 q 0.05352,-0.33895 0.535184,-0.35679 0.481665,0.10703 0.499505,0.64222 -0.01784,0.33895 -0.03568,0.73141 h 0.03568 q 0.267592,-0.0535 0.874134,-0.23191 0.731418,-0.19623 1.373639,-0.35679 0.142715,-0.0535 0.30327,-0.0714 0.428148,0.0535 0.553024,0.33895 0.05352,0.32111 -0.0892,0.51735 -0.05352,0.0535 -0.142716,0.0714 -0.231913,0.0178 -0.535184,0.0535 -0.695739,0.12487 -2.01586,0.48166 -0.249752,0.0535 -0.410307,0.0535 v 0.0892 q 0.01784,0.24975 0.05352,0.4995 -0.107037,0.42815 -0.481666,0.46383 -0.160555,0 -0.267592,-0.0714 l -0.445986,0.7671 q 1.462836,-0.60655 3.121906,-0.8563 0.499505,-0.0178 0.695739,0.19624 0.231913,0.21407 0.107037,0.57086 -0.107037,0.23191 -0.713578,0.89197 -1.498515,1.83747 -3.264623,4.12092 -0.356789,0.46383 -0.517344,0.53518 -0.356789,0.23192 -0.6779,0.0892 -0.267592,-0.21407 -0.196234,-0.55302 0.01784,-0.0714 0.124876,-0.12488 0.160556,0.0178 0.285432,-0.10704 0.196234,-0.0535 1.569873,-1.9445 0.05352,-0.0714 0.07136,-0.10703 -0.99901,-0.19624 -1.801786,-0.89198 -0.428147,0.60654 -0.838455,1.12389 l -0.695739,0.7671 q -0.303271,0.10703 -0.517345,-0.10704 -0.267592,-0.41031 0.107037,-0.6779 1.32012,-1.3558 2.586722,-3.62141 0.160556,-0.28543 0.267592,-0.53519 0.05352,-0.14271 0.107037,-0.30327 0.178395,-0.12487 0.356789,-0.0892 0.03568,-0.32112 0.0892,-0.7671 0.0892,-0.82062 0.05352,-0.92765 -0.01784,-0.1784 -0.124876,-0.30327 z m -0.606542,4.81665 q 0.0892,0.0357 0.142716,0.0714 0.749257,0.53518 1.052528,0.6779 0.142716,0.0892 0.303271,0.16055 0.767097,-1.01685 1.498515,-1.98018 -1.284441,0.16056 -2.99703,1.07037 z m 5.458877,3.69277 q 1.159565,-0.28543 1.890983,-0.33895 0.624381,0.0714 0.891973,0.48167 0.0892,0.30327 -0.107037,0.64222 l -0.856294,2.47968 q 0.107037,0.0714 0.160555,0.1784 0.05352,0.32111 -0.0892,0.51734 -0.05352,0.0892 -0.178395,0.10704 -0.32111,0.0357 -0.713578,0.0892 -0.660061,0.14271 -1.748268,0.42814 0.802776,0.35679 1.748268,0.7671 0.731418,-0.82062 1.623391,-1.46284 0.517344,-0.37463 1.016849,-0.57086 0.33895,-0.0892 0.499505,0.14272 0.178395,0.28543 -0.107036,0.53518 -0.535184,0.32111 -0.927653,0.5887 -0.713578,0.49951 -1.427157,1.08821 1.01685,0.46383 2.176415,1.03469 l 0.517345,0.21407 q 0.374628,0.14272 0.606541,0.1784 0.303271,0.32111 0.160556,0.82061 -0.196235,0.30327 -0.517345,0.23192 -0.356789,-0.10704 -0.909813,-0.44599 -1.819625,-1.03469 -3.710608,-1.89098 -0.05352,0.0535 -0.0892,0.0713 -1.177405,0.69574 -2.515364,1.94451 -0.481666,0.4103 -0.820616,0.0535 -0.231913,-0.17839 -0.249752,-0.51734 0,-0.21407 0.05352,-0.5887 0.713579,-3.31814 0.356789,-4.47771 l -0.07136,-0.32111 q -0.03568,0.0178 -0.05352,0.0178 -0.588702,0.16056 -0.606542,-0.41031 0.05352,-0.41031 0.445987,-0.51734 1.230923,-0.44599 2.515365,-0.78494 0.07136,-0.0178 0.124876,-0.0357 -0.178395,-0.28543 -0.321111,-0.51734 -0.249752,-0.41031 -0.03568,-0.66006 0.196235,-0.19624 0.463827,-0.12488 0.338949,0.1784 0.784936,1.01685 0.01784,0.0178 0.01784,0.0357 z m -2.051539,4.92369 q -0.124876,0.0178 -0.214074,0.0178 -0.0892,-0.0178 -0.160555,-0.0535 -0.0892,0.82062 -0.231913,1.5342 0,0.16055 0.124876,0.0535 0.570863,-0.32111 1.605552,-0.73142 0.249753,-0.0714 0.410308,-0.14272 -0.428147,-0.23191 -0.874134,-0.41031 -0.33895,-0.12487 -0.66006,-0.26759 z m -0.285431,-0.82061 q 0.160555,-0.0357 0.338949,-0.0714 0.374629,-0.0892 1.177405,-0.32111 0.981171,-0.26759 1.837465,-0.51735 0.0892,-0.37462 0.142716,-0.62438 0.231913,-1.15956 0.303271,-1.67691 0.178394,-0.30327 -0.196234,-0.26759 -0.517345,0 -1.944502,0.44599 -0.856294,0.23191 -1.801786,0.57086 0.142716,0.21407 0.178394,0.55302 0.05352,0.66006 0.01784,1.33796 -0.01784,0.28544 -0.05352,0.57087 z m 2.854314,-2.53321 q 0.428147,0.0535 0.553023,0.33895 0.05352,0.32111 -0.0892,0.51735 -0.03568,0.0714 -0.124876,0.0714 -0.214074,0.0357 -0.463826,0.0713 -0.588703,0.14272 -1.748268,0.51735 -0.214073,0.0535 -0.374629,0.0535 -0.356789,-0.0714 -0.374628,-0.33895 -0.05352,-0.23192 0.05352,-0.37463 0.01784,-0.0892 0.374629,-0.14272 0.231913,-0.0714 0.749257,-0.24975 0.624382,-0.21407 1.177405,-0.39247 0.124876,-0.0535 0.267592,-0.0714 z"
         inkscape:connector-curvature="0" />
      <path
         id="path4582"
         style="font-style:normal;font-variant:normal;font-weight:normal;font-stretch:normal;font-size:18.26761246px;font-family:DFPChuW4-B5;-inkscape-font-specification:'DFPChuW4-B5, Normal';font-variant-ligatures:normal;font-variant-caps:normal;font-variant-numeric:normal;font-feature-settings:normal;text-align:start;writing-mode:lr-tb;text-anchor:start;stroke-width:1.37007093"
         d="m 93.556675,140.06592 q -0.570863,-0.53518 -0.124876,-0.83845 l 1.355799,-0.60655 q 2.087218,-1.51635 4.388509,-3.35382 -2.515365,0.39247 -4.138756,0.51735 -0.231913,0.0535 -0.356789,-0.14272 -0.178395,-0.16055 -0.142716,-0.42814 -0.01784,-0.14272 0.642221,-0.55303 1.694749,-1.1774 5.191283,-4.4777 0.49951,-0.51735 0.7671,-0.51735 0.39247,-0.0357 0.62438,0.49951 -0.12488,0.24975 -0.48167,0.44598 -0.80277,0.51735 -3.496531,2.94352 -0.588703,0.4995 -1.177405,0.99901 -0.124876,0.19623 0.142716,0.19623 1.623391,-0.19623 3.228943,-0.39247 0.463827,-0.10704 1.480677,-1.2666 0.37463,-0.1784 0.6779,-0.10704 0.33895,0.0178 0.57086,0.30327 0.0535,0.2676 -0.53518,0.57087 -1.28444,1.1774 -5.77999,4.6561 2.907833,-0.62438 5.79783,-1.73043 0.26759,-0.0892 0.4103,-0.0535 0.48167,0.51735 0.8563,0.74926 1.24876,0.87413 2.6224,1.42716 0.57086,0.21407 0.66006,0.53518 -0.16056,0.39247 -0.5887,0.33895 -0.80278,-0.10704 -3.28246,-1.56987 l -0.73142,-0.48167 q -0.7671,0.30327 -2.158577,0.7671 0.107037,0.12487 0.0892,0.32111 -0.107022,0.21407 -0.124861,0.41031 -0.249753,2.05153 -0.107037,5.17344 -0.07136,0.21407 -0.231913,0.30327 -0.214074,0.0892 -0.410308,-0.0178 -1.409317,-0.71358 -2.854314,-2.49752 -1.266602,0.89197 -1.962341,1.33796 -0.642221,0.44598 -1.302281,0.60654 -0.303271,0.0535 -0.517345,-0.14272 -0.142716,-0.39247 0.124876,-0.66006 1.766108,-0.94549 3.104067,-2.06938 0.267592,-0.28543 0.624382,-0.24975 0.231913,0 0.445986,0.28543 0.695739,1.30228 1.99802,1.98018 -0.07136,-2.64024 0.142716,-4.49554 -1.99802,0.62438 -4.816655,1.21308 -0.374629,0.12488 -0.624382,0.0714 z m 0.0892,-8.34887 q 0.01784,-0.41031 0.535184,-0.41031 0.98117,-0.23191 3.371658,-1.9445 l 2.122897,-1.65907 q 0.285431,-0.16055 0.553026,0.0714 0.23191,0.24975 -0.0178,0.55302 -2.229935,1.90883 -4.656103,3.24679 -0.64222,0.32111 -1.284441,0.48166 -0.624381,0.0357 -0.624381,-0.33895 z m 13.254725,12.64818 q -0.28544,0.26759 -0.64223,-0.0357 -2.42616,-1.71259 -3.38949,-2.12289 -0.1784,-0.0892 -0.37463,-0.1784 -0.48167,-0.32111 -0.10704,-0.73142 0.19623,-0.19623 0.51735,-0.10703 1.40931,0.35679 3.90684,2.39049 0.37463,0.4103 0.0892,0.78493 z"
         inkscape:connector-curvature="0" />
      <path
         id="path4584"
         style="font-style:normal;font-variant:normal;font-weight:normal;font-stretch:normal;font-size:18.26761246px;font-family:DFPChuW4-B5;-inkscape-font-specification:'DFPChuW4-B5, Normal';font-variant-ligatures:normal;font-variant-caps:normal;font-variant-numeric:normal;font-feature-settings:normal;text-align:start;writing-mode:lr-tb;text-anchor:start;stroke-width:1.37007093"
         d="m 120.44075,130.64668 q -0.32111,-0.55302 -0.64223,-1.03469 -0.24975,-0.4103 -0.0178,-0.66006 0.17839,-0.19623 0.44598,-0.12487 0.49951,0.30327 1.12389,1.64123 0.19623,0.35679 -0.1784,0.6779 0.8563,-0.26759 1.65907,-0.51735 0.33895,-0.16055 0.73142,-0.19623 0.42815,0.0535 0.55303,0.33895 0.0535,0.32111 -0.0892,0.4995 -0.10704,0.19624 -0.32111,0.23192 -0.57087,0.0892 -1.28444,0.21407 -0.7671,0.1784 -1.83747,0.55302 0.0535,0.12488 0.0535,0.24976 0.0535,0.24975 -0.66006,1.48067 -0.55302,0.92765 -1.2666,2.64024 0.78493,-0.37463 2.12289,-0.90981 0.69574,-0.26759 1.76611,-0.55302 0.24975,-0.35679 0.73142,-0.32111 0.12488,0.0357 0.24975,0.12487 0.35679,0.39247 0.71358,0.69574 0.5887,0.49951 1.03469,0.89198 0.35679,0.28543 0.21407,0.62438 -0.14271,0.28543 -0.57086,0.10703 -0.28543,-0.19623 -0.53518,-0.39246 -0.71358,-0.51735 -1.46284,-1.01685 -2.0337,0.51734 -4.81666,1.96234 -0.37462,0.0178 -0.53518,-0.10704 -0.24975,-0.16056 -0.28543,-0.46383 0.0178,-0.35679 0.57086,-0.98117 0.49951,-0.99901 1.10605,-2.28345 0.42815,-0.85629 0.71358,-1.48067 -0.96333,0.33895 -2.08722,0.74925 -0.57086,0.1784 -1.03469,0.1784 -0.35679,-0.0714 -0.37463,-0.33895 -0.0535,-0.23191 0.0535,-0.37463 0.0714,-0.23191 1.07037,-0.41031 0.6779,-0.17839 2.14073,-0.66006 0.64222,-0.19623 1.24877,-0.37463 -0.0357,0 -0.0714,-0.0357 -0.0892,-0.0535 -0.12488,-0.30327 -0.0535,-0.26759 -0.10703,-0.32111 z m 4.06739,11.13183 q -0.0357,-0.16056 0.10704,-0.23191 0.10704,-0.0535 0.28543,0.0535 0.1784,0.19624 0.5887,0.89198 0.1784,0.26759 0.33895,0.53518 0.1784,0.24975 0.19624,0.44599 0.0178,0.35679 -0.41031,0.41031 -0.10704,-0.0357 -0.37463,0.0357 l -2.24777,0.39246 q -0.66006,0.0892 -1.10605,0.0714 -0.41031,-0.14271 -0.41031,-0.48166 -0.0357,-0.0357 0.0714,-0.62439 0.0535,-0.64222 0.0892,-1.12388 0.10704,-1.89099 0.19623,-3.87117 0.0178,-0.39246 0.0714,-0.51734 0.0892,-0.12488 0.1784,-0.1784 l 0.21407,-0.0178 q 0.33895,0.0357 0.42815,0.37462 v 0.16056 q -0.0357,0.21407 -0.0714,0.90981 -0.0714,2.19426 -0.1784,4.22796 -0.0178,0.23191 0.14272,0.23191 0.0714,0.0178 0.64222,-0.0714 0.33895,-0.0714 0.6779,-0.16055 l 0.37463,-0.0714 q 0.16055,-0.0357 0.26759,-0.0714 0.32111,-0.0714 0.23191,-0.35679 -0.0357,-0.39247 -0.30327,-0.96333 z m -7.74232,2.30129 q -0.0535,-0.12488 0.28543,-0.60654 0.10703,-0.16056 0.21407,-0.35679 1.15957,-2.17642 1.76611,-4.53123 0.0357,-0.14271 0.0535,-0.28543 0.0713,-0.19623 0.28543,-0.21407 0.41031,0 0.55302,0.42815 -0.0535,1.2666 -1.8553,5.01289 -0.12488,0.26759 -0.24976,0.44598 -0.30327,0.51735 -0.64222,0.48167 -0.37463,-0.0178 -0.4103,-0.37463 z m -2.94352,-15.2349 q 0.24976,0.14271 0.33895,0.42814 0.0357,0.1784 -0.0713,0.32111 -0.49951,0.64223 -2.40833,3.92469 -0.0892,0.14271 0.10703,0.12487 1.23093,-0.42814 2.78296,-1.03469 0.12488,-0.0892 0.21408,-0.19623 0.0713,-0.0892 0.16055,-0.10704 0.37463,-0.0357 0.55302,0.2676 0.10704,0.17839 0.0357,0.53518 -0.0714,0.14271 -0.17839,0.23191 -0.30327,0.21408 -0.57086,0.46383 -0.46383,0.32111 -3.06839,3.81764 -0.0535,0.16056 0.0892,0.10704 1.445,-0.5887 2.51537,-1.15956 0.28543,-0.12488 0.48166,-0.41031 0.23192,-0.21408 0.58871,-0.0892 0.12487,0.16056 0.44598,0.62438 0.28544,0.41031 0.71358,0.73142 0.14272,0.10704 0.23192,0.37463 0.0357,0.19623 0.0178,0.35679 -0.0535,0.16055 -0.23191,0.21407 -0.16055,0.0535 -0.35679,-0.0357 -0.4995,-0.30327 -0.94549,-0.74926 -0.10704,-0.16055 -0.19623,-0.30327 -0.10704,-0.14271 -0.23192,-0.0535 -0.35679,0.30327 -2.56888,1.14172 -1.48068,0.60654 -1.65907,0.74926 -0.10704,0.0535 -0.21407,0.10704 h -0.19624 q -0.14271,-0.0535 -0.30327,-0.32111 v -0.39247 q 0.0714,-0.10704 0.23191,-0.21408 0.46383,-0.4103 3.22895,-4.13875 0.0892,-0.23192 -0.16056,-0.12488 -0.14271,0.0535 -1.98018,0.74926 -0.57086,0.24975 -0.87413,0.21407 -0.21408,-0.0714 -0.30327,-0.23191 -0.10704,-0.16056 -0.0535,-0.39247 0.0178,-0.12488 0.83845,-1.12389 l 2.2121,-3.74628 q 0.16055,-0.26759 0.24975,-0.51735 0.19623,-0.26759 0.53518,-0.14271 z m -0.57086,11.48861 q 0.51735,0.49951 0.78494,1.3558 0.0357,0.10704 0.0535,0.23191 0.0178,0.35679 -0.21408,0.41031 -0.17839,0.0357 -0.32111,-0.10703 -0.0535,-0.0357 -0.16055,-0.16056 -0.48167,-0.71358 -0.90982,-1.07037 -0.4103,-0.46382 -0.0357,-0.76709 0.16055,-0.1784 0.42814,-0.14272 0.12488,0.0178 0.37463,0.24975 z m 2.05154,-0.83845 q 0.53518,0.44598 0.82062,1.23092 0.0357,0.0892 0.0535,0.23191 0.0178,0.33895 -0.21407,0.39247 -0.17839,0.0357 -0.32111,-0.10703 -0.0535,-0.0357 -0.16056,-0.14272 -0.4995,-0.62438 -0.94549,-0.94549 -0.42814,-0.46383 -0.0357,-0.7671 0.16056,-0.17839 0.42815,-0.14271 0.12488,0.0178 0.37463,0.24975 z m -4.37067,3.47869 q -0.42815,-0.69574 -0.89197,-1.32012 -0.24976,-0.4103 -0.0178,-0.66006 0.17839,-0.19623 0.44598,-0.12487 0.64223,0.39246 1.46284,2.08721 0.19623,0.35679 -0.21407,0.71358 -0.24976,0.1784 -0.46383,0.0892 -0.10704,-0.0714 -0.16055,-0.37463 -0.0892,-0.33895 -0.16056,-0.41031 z"
         inkscape:connector-curvature="0" />
    </g>
    <text
       xml:space="preserve"
       style="font-style:normal;font-weight:normal;font-size:73.07044983px;line-height:1.25;font-family:sans-serif;letter-spacing:0px;word-spacing:0px;fill:#000000;fill-opacity:1;stroke:none;stroke-width:1.37007093"
       x="46.008488"
       y="171.72499"
       id="text4520"><tspan
         sodipodi:role="line"
         id="tspan4518"
         x="46.008488"
         y="171.72499"
         style="font-style:normal;font-variant:normal;font-weight:normal;font-stretch:normal;font-size:18.26761246px;font-family:DFPChuW4-B5;-inkscape-font-specification:'DFPChuW4-B5, Normal';font-variant-ligatures:normal;font-variant-caps:normal;font-variant-numeric:normal;font-feature-settings:normal;text-align:start;writing-mode:lr-tb;text-anchor:start;stroke-width:1.37007093">歡迎多加利用</tspan></text>
  </g>
</svg>
