<?xml version="1.0" encoding="UTF-8"?>
<svg xmlns="http://www.w3.org/2000/svg"
    width="200"
    height="100"
    viewBox="0 0 200 100">
    <path
        d="M 0,0 V 100 H 200 V 0 Z M 2.5,2.5 H 2.50391 L 2.5,2.51 Z m 2.8496094,0 H 197.5 V 96.1075 Z M 2.5,3.8867 194.64453,97.5 H 2.5 Z"
        style="fill:#000000" />
    <path
        d="m 72.298611,27.07774 q 1.25,0.15625 1.614583,0.98958 0.15625,0.9375 -0.3125,1.51042 -0.3125,0.36458 -1.09375,0.46875 -1.927083,0.20833 -4.322916,0.46875 -5.520833,0.88542 -16.25,3.38542 -1.927083,0.36458 -3.489583,0.36458 -1.041667,-0.20833 -1.09375,-0.98958 -0.15625,-0.67709 0.15625,-1.09375 0.208333,-0.52084 3.59375,-0.88542 2.34375,-0.36458 7.34375,-1.45833 0.78125,-0.15625 1.458333,-0.3125 0,-0.0521 -0.05208,-0.10417 -0.729167,-1.14583 -1.458334,-2.1875 -0.729166,-1.19792 -0.05208,-1.92708 0.520833,-0.57292 1.302083,-0.36459 1.197917,0.625 2.708334,3.48959 0.208333,0.3125 0.208333,0.57291 3.802083,-0.83333 7.239583,-1.51041 1.145833,-0.3125 2.5,-0.41667 z m -23.281249,9.11458 q 0.3125,-0.98958 1.614583,-0.88542 1.041667,0.26042 1.041667,1.14584 0,0.78125 -0.104167,1.77083 0.885417,-0.26042 2.604166,-0.46875 0.416667,-0.0521 0.885417,-0.15625 -0.05208,-0.41667 -0.104167,-0.83333 -0.104166,-1.04167 -0.05208,-1.35417 0.3125,-1.14583 1.5625,-0.83333 0.78125,0.3125 1.197917,0.98958 l 0.05208,0.98958 q 0,0.26042 0.05208,0.52084 1.5625,-0.36459 3.4375,-0.78125 2.552084,-0.46875 4.895834,-1.04167 0.208333,-1.14583 0.364583,-2.34375 0.104167,-0.41666 0.46875,-0.625 0.416667,-0.36458 1.145833,-0.36458 1.145833,0 1.354167,0.83333 0.05208,0.26042 -0.3125,1.45834 0,0.10416 -0.104167,0.46874 1.614583,-0.36458 3.177083,-0.67708 1.09375,-0.3125 2.395834,-0.41666 1.145833,0.15625 1.458333,0.9375 0.104167,0.83333 -0.15625,1.35416 -0.416667,0.36458 -1.145833,0.46875 -1.875,0.20833 -4.166667,0.46875 -0.989583,0.15625 -2.239583,0.36458 -0.3125,1.35417 -0.78125,3.22917 -0.104167,0.41667 -0.208333,0.67708 0.260416,0.20834 0.416666,0.57292 0.15625,1.14583 -0.625,1.61458 -0.729166,0 -1.145833,0.10417 -3.958333,1.04167 -6.770833,1.71875 -0.104167,0.0521 -0.208334,0.0521 -0.104166,0.67709 -0.78125,1.19792 -1.25,0.41667 -1.770833,-0.67708 -0.416667,-0.98959 -1.041667,-5.3125 0,-0.15625 -0.05208,-0.20834 -0.208333,0.0521 -0.416667,0.10417 -1.874999,0.36458 -3.385416,0.36458 -0.260417,-0.0521 -0.364583,-0.10416 -0.729167,4.16666 -2.65625,10.15625 2.135416,-0.78125 7.812499,-2.34375 8.333334,-2.34375 20.208333,-4.32292 1.25,-0.26042 1.5625,-0.20833 1.197917,0.36458 1.041667,1.77083 -0.260417,1.04167 -1.40625,1.35417 -6.302083,0.10416 -20.572916,3.95833 -4.479167,1.25 -8.072917,2.65625 -0.520833,0.10417 -0.989583,-0.0521 -0.208333,-0.0521 -0.416667,-0.20834 -2.5,7.44792 -6.5625,17.23959 -0.46875,1.14583 -0.989583,2.23958 -0.885416,0.67708 -1.71875,0.20833 -0.677083,-0.41666 -0.572916,-1.51041 0.104166,-0.625 0.46875,-1.51042 0.677083,-1.51042 0.885416,-1.77083 0.104167,-0.10417 0.260417,-0.15625 7.604166,-18.59375 9.375,-28.90625 0.208333,-1.66667 0.15625,-2.91667 z m 9.583333,6.61458 q 3.125,-0.72916 6.354166,-1.66666 -0.05208,-0.15625 -0.104166,-0.3125 0.46875,-1.51042 0.78125,-3.125 -3.333334,0.78125 -7.604167,1.77083 0.260417,1.77083 0.572917,3.33333 z m 3.385416,12.70834 q -3.541666,0.98958 -7.5,2.23958 0.15625,0.36458 0.260417,0.67708 l 0.625,2.13542 q 0.572917,-0.15625 1.458333,-0.3125 1.302084,-0.3125 4.010417,-1.14583 0.677083,-0.20834 1.25,-0.36459 0.104167,-2.29166 0.05208,-2.60416 -0.05208,-0.3125 -0.15625,-0.625 z m -0.05208,5.9375 q -1.979167,0.57291 -4.21875,1.30208 -0.885417,0.20833 -1.5625,0.26042 l 0.885417,2.91666 q 0.729166,-0.26041 1.927083,-0.41666 0.989583,-0.20834 2.760417,-0.625 0,-0.72917 0.208333,-3.4375 z m 2.552083,2.70833 q 2.916667,-0.72917 5.46875,-1.40625 l 0.05208,-0.10417 q 0.885417,-1.92708 1.302084,-3.02083 1.5625,-3.80208 1.979166,-5.52083 0.520834,-0.88542 -0.572916,-0.78125 -2.083334,0 -7.916667,1.51041 -0.15625,0.0521 -0.260416,0.0521 0.364583,0.52083 0.364583,1.19791 -0.05208,0.88542 -0.104167,1.875 1.197917,-0.36458 2.291667,-0.67708 0.625,-0.26042 1.354166,-0.3125 1.25,0.15625 1.614584,0.98958 0.15625,0.9375 -0.260417,1.51042 -0.208333,0.3125 -0.572917,0.36458 -1.145833,0.15625 -2.447916,0.36459 -0.989583,0.20833 -2.1875,0.52083 -0.104167,0.88542 -0.15625,1.77083 -0.05208,0.67709 0,1.14584 0,0.26041 0.05208,0.52083 z m 8.28125,-2.13542 q 0.416667,-0.0521 0.78125,-0.10416 1.25,0.15625 1.614583,0.98958 0.15625,0.9375 -0.260416,1.51042 -0.260417,0.3125 -0.78125,0.41666 -1.354167,0.15625 -3.020834,0.41667 -3.802083,0.78125 -11.197916,2.96875 -0.364583,0.10417 -0.625,0.10417 0.15625,0.41666 0.208333,0.83333 -2.447916,3.02083 -5.520833,5.3125 -0.989583,0.625 -1.875,0.0521 -0.729166,-0.625 -0.364583,-1.51041 2.135417,-1.45834 3.802083,-3.48959 -0.677083,-0.36458 -0.833333,-1.30208 -1.458333,-7.44792 -3.697917,-11.45833 -0.885416,-1.19792 -0.729166,-1.45834 0.05208,-0.625 0.833333,-0.9375 0.989583,-0.26041 1.666667,0.52084 0.260416,0.15625 0.520833,0.46875 l 0.104167,-0.0521 q 4.791666,-1.51041 9.791666,-2.65625 7.239583,-1.875 11.354166,-2.13541 1.822917,0.20833 2.604167,1.40625 0.260417,0.88541 -0.3125,1.875 z m -2.239583,5.52084 q 1.302083,0.20833 6.041666,3.48958 1.25,0.83333 1.770834,1.40625 0.885416,0.98958 0.15625,2.08333 -0.989584,0.98959 -2.03125,0.3125 -0.208334,-0.10416 -1.25,-1.09375 -1.666667,-1.61458 -5.729167,-3.95833 -0.625,-0.625 -0.260417,-1.40625 0.46875,-0.78125 1.302084,-0.83333 z"
        style="fill:#000000" />
    <path
        d="m 125.42361,37.91107 q -3.4375,0.36458 -9.11458,1.97917 -0.15625,2.86458 -0.41667,5.83333 0,1.61458 0.10417,3.17708 0,0.15625 0.0521,0.3125 7.60417,-1.40625 16.51042,-2.65625 1.77083,-0.26041 2.23958,-0.20833 1.19792,0.41667 1.09375,1.77083 -0.3125,1.04167 -1.45833,1.35417 -9.0625,0.10417 -29.42709,4.73958 -6.45833,1.45834 -11.614579,3.17709 -0.520834,0.10416 -0.989584,-0.0521 -1.041666,-0.36458 -1.145833,-1.14583 -0.15625,-0.625 0.260417,-1.04167 0.364583,-0.72916 12.708329,-3.54166 4.11459,-0.98959 8.80209,-1.875 0.0521,-1.97917 0.67708,-9.0625 -4.42708,1.35416 -10.05208,3.33333 -2.03125,0.57292 -2.70834,-0.20833 -0.78125,-0.78125 -0.26041,-1.77084 l 4.32291,-11.30208 q 0.41667,-0.9375 1.61459,-0.52083 1.19791,0.72917 0.83333,1.71875 -1.51042,4.11458 -3.07292,8.28125 -0.36458,0.9375 0.46875,0.52083 4.0625,-1.40625 9.11459,-2.86458 v -0.20834 q 0.57291,-8.59374 0.36458,-9.68749 -0.0521,-0.52084 -0.36458,-0.88542 0.15625,-0.98958 1.5625,-1.04167 1.40625,0.3125 1.45833,1.875 -0.10417,4.11459 -0.46875,9.16667 3.64583,-0.98959 7.70833,-2.08334 0.98959,-0.20833 1.45834,-0.0521 1.04166,0.41667 1.09375,1.61458 -0.20834,1.30209 -1.35417,1.35417 z m 3.59375,30.88542 q 1.09375,0.26041 1.30208,1.51041 -0.41666,1.82292 -2.23958,1.77084 -2.5,-1.30209 -10.52083,0.46875 -1.66667,0.57291 -2.39584,0.57291 -0.46875,-0.10416 -0.9375,-0.52083 -0.83333,-1.35417 0.41667,-1.92708 0.52083,-0.41667 3.22917,-0.88542 2.08333,-0.15625 2.76041,-0.9375 2.55209,-4.53125 5.05209,-8.90625 0.20833,-0.46875 -0.36459,-0.46875 -4.47916,0.15625 -14.27083,2.76042 -3.28125,0.9375 -5.67708,2.29166 l 2.34375,8.4375 q -0.15625,1.35417 -1.35417,1.5625 -1.51042,-0.10416 -1.77083,-1.5625 -1.25,-6.97916 -3.125,-10.72916 -0.78125,-1.04167 -0.625,-1.35417 0.0521,-0.67708 0.88541,-0.98958 1.04167,-0.26042 1.77084,0.57291 0.46875,0.20834 0.9375,1.40625 0.15625,-0.10416 0.26041,-0.15625 5.41667,-2.29166 18.59375,-4.53125 2.96875,-0.57291 5.46875,-0.52083 0.88542,0.20833 1.35417,0.9375 0.36458,0.52083 0.20833,1.25 0.3125,0.41667 -3.64583,5.67708 l -3.17708,4.375 3.02083,-0.15625 q 1.92708,0 2.5,0.0521 z"
        style="fill:#000000" />
    <path
        d="m 171.62165,55.996653 q 0,0.78125 -0.9375,1.25 -0.9375,0.260417 -2.8125,0.9375 -1.875,0.833334 -9.47916,3.333334 -1.04167,1.979166 -2.03125,4.6875 -0.20834,0.677083 -0.20834,1.40625 0,0.729166 -0.625,1.145833 -0.57291,0.46875 -1.19791,0.46875 -1.61459,0 -1.61459,-1.666667 0,-0.3125 0.36459,-0.989583 0.46875,-0.833333 0.52083,-0.9375 0.72917,-1.822917 1.30208,-3.489583 -2.60416,0.46875 -4.42708,0.46875 -4.89583,0 -4.89583,-4.479167 0,-1.927083 2.03125,-6.770833 1.5625,-3.385417 3.07291,-6.666667 1.04167,-2.34375 2.55209,-5.781249 0.625,-1.614584 1.35416,-1.614584 1.71875,0 1.71875,1.927084 0,1.145833 -1.14583,3.124999 -0.9375,1.40625 -1.875,2.864584 -2.70833,4.322916 -4.32292,9.427083 -0.57291,1.875 -0.57291,3.229166 0,1.979167 2.65625,1.979167 2.91666,0 5.3125,-0.9375 0.41666,-0.9375 1.61458,-3.541667 2.34375,-5.520833 6.77083,-15.104166 0.88542,-1.614583 2.60417,-4.791666 0.625,-1.197917 1.35417,-1.197917 0.52083,0 1.14583,0.416667 0.67708,0.416666 0.67708,1.041666 0,0.46875 -0.83333,1.71875 -0.52083,0.9375 -1.04167,1.770834 -5.78125,10.260416 -9.01041,19.114582 1.77083,-0.625 7.1875,-2.864583 0.20833,-0.05208 1.51041,-0.833333 0.88542,-0.572917 1.45834,-0.572917 0.78125,0 1.30208,0.572917 0.52083,0.572916 0.52083,1.354166 z"
        style="fill:#000000" />
</svg>
